<svg fill="none" height="64" viewBox="0 0 64 64" width="64" xmlns="http://www.w3.org/2000/svg"><g fill="rgb(0,0,0)"><path d="m32 43c-1.1046 0-2-.8954-2-2v-7h-7c-1.1046 0-2-.8954-2-2s.8954-2 2-2h7v-7c0-1.1046.8954-2 2-2s2 .8954 2 2v7h7c1.1046 0 2 .8954 2 2s-.8954 2-2 2h-7v7c0 1.1046-.8954 2-2 2z"/><path clip-rule="evenodd" d="m18 2c-8.83656 0-16 7.16344-16 16v28c0 8.8366 7.16344 16 16 16h28c8.8366 0 16-7.1634 16-16v-25.3927c0-2.2174-.9204-4.3354-2.5415-5.8484l-11.3649-10.60734c-1.4814-1.38261-3.4322-2.15156-5.4586-2.15156zm-12 16c0-6.6274 5.3726-12 12-12h24v6c0 4.4183 3.5817 8 8 8h7.9536c.0307.1997.0464.4027.0464.6073v25.3927c0 6.6274-5.3726 12-12 12h-28c-6.6274 0-12-5.3726-12-12zm40-6v-4.3309l8.926 8.3309h-4.926c-2.2091 0-4-1.7909-4-4z" fill-rule="evenodd"/></g></svg>