<?xml version="1.0" encoding="utf-8"?>
<!-- Generator: Adobe Illustrator 26.0.1, SVG Export Plug-In . SVG Version: 6.00 Build 0)  -->
<svg version="1.1" id="Layer_1" xmlns="http://www.w3.org/2000/svg" xmlns:xlink="http://www.w3.org/1999/xlink" x="0px" y="0px"
	 viewBox="0 0 30 30.22" style="enable-background:new 0 0 30 30.22;" xml:space="preserve">
<style type="text/css">
	.st0{fill:#FFFFFF;}
	.st1{fill:#3184B6;}
	.st2{fill:#1F688C;}
	.st3{fill:#145366;}
	.st4{fill:url(#SVGID_1_);}
	.st5{fill:url(#SVGID_00000060744074473877154030000017631504065557550220_);}
	.st6{fill:url(#SVGID_00000099628245121340590270000000642236563474782132_);}
	.st7{fill:none;}
	.st8{fill:#20698E;}
	.st9{fill:#3B91BC;}
	.st10{fill:#333333;}
	.st11{fill:none;stroke:#CCCCCC;stroke-miterlimit:10;}
	.st12{fill:#666666;}
	.st13{opacity:0.7;}
	.st14{clip-path:url(#SVGID_00000119114726203901562800000014125967793889609605_);fill:#FFFFFF;}
	.st15{clip-path:url(#SVGID_00000158727802377993143440000008268814088197769141_);fill:#FFFFFF;}
	.st16{clip-path:url(#SVGID_00000158028924478802651970000003236324453314262667_);fill:#FFFFFF;}
	.st17{clip-path:url(#SVGID_00000178921525640148814900000018355926300221718689_);fill:#FFFFFF;}
	.st18{fill:#F77B0B;}
	.st19{fill:none;stroke:#FFFFFF;stroke-miterlimit:10;}
	.st20{filter:url(#Adobe_OpacityMaskFilter);}
	.st21{enable-background:new    ;}
	.st22{opacity:0.3;mask:url(#SVGID_00000138571177727808978050000004122491509612088961_);}
	.st23{clip-path:url(#SVGID_00000087396692865464420930000004746229666389988541_);}
	.st24{clip-path:url(#SVGID_00000082351101920882529230000001592788790917736591_);}
	.st25{clip-path:url(#SVGID_00000028289178110733336220000001080512575971728784_);fill:#FFFFFF;}
	.st26{clip-path:url(#SVGID_00000082337182284372877480000016150813977358550973_);fill:#FFFFFF;}
	.st27{clip-path:url(#SVGID_00000183952174961024918420000000307233554620499901_);fill:#FFFFFF;}
	.st28{clip-path:url(#SVGID_00000133489354391587390750000010489172436787523215_);fill:#FFFFFF;}
	.st29{filter:url(#Adobe_OpacityMaskFilter_00000183230880182186766200000014632450872098429868_);}
	.st30{opacity:0.3;mask:url(#SVGID_00000178176506265820610400000008140330371718099343_);}
	.st31{clip-path:url(#SVGID_00000142173796400099091000000001404918919444777380_);}
	.st32{clip-path:url(#SVGID_00000023989541338728083940000005156786540937431455_);}
	.st33{fill:none;stroke:#999999;stroke-width:0.5;stroke-miterlimit:10;}
	.st34{fill:none;stroke:#F2F2F2;stroke-miterlimit:10;}
	.st35{fill:url(#SVGID_00000163768886743245573930000004325688222393197728_);}
	.st36{fill:url(#SVGID_00000039822836010234694410000010077714186380690102_);}
	.st37{fill:url(#SVGID_00000165216674454506543620000001373248940562844331_);}
	.st38{clip-path:url(#SVGID_00000134972529807640720320000000906427659077734039_);}
	.st39{clip-path:url(#SVGID_00000151533679902904708230000008310252067199962523_);}
	.st40{opacity:0.2;}
	.st41{clip-path:url(#SVGID_00000063599551565382642660000017022408016743218106_);}
	.st42{clip-path:url(#SVGID_00000007396620384193930020000017764130413547126421_);}
	.st43{fill:none;stroke:#999999;stroke-width:0.75;stroke-miterlimit:10;}
	.st44{fill:url(#SVGID_00000178183964078872328710000009882939372865084060_);}
	.st45{fill:url(#SVGID_00000135659582931754626160000000534846214885542034_);}
	.st46{fill:#3184B6;stroke:#145366;stroke-miterlimit:10;}
	.st47{fill:#55FF3F;}
	.st48{fill:url(#SVGID_00000163040728925836822700000004396033703825473161_);}
	.st49{fill:url(#SVGID_00000039119804156979719040000018425043765235675313_);}
	.st50{fill:url(#SVGID_00000004530300946241912040000010896728779662052505_);}
	.st51{fill:url(#SVGID_00000161624836949705203930000005522446645001952936_);}
	.st52{fill:url(#SVGID_00000118389350385501624720000010459184787215179418_);}
	.st53{fill:url(#SVGID_00000071536901083959842900000002288557900102521013_);}
</style>
<g>
	<path d="M28.48,8.34c0,0.97,0,1.94,0,2.91c-0.01,1.79-1.27,3.09-3.05,3.1c-1.95,0.02-3.9,0.02-5.86,0
		c-1.77-0.02-3.05-1.29-3.07-3.06c-0.02-1.96-0.02-3.93,0-5.89c0.02-1.77,1.32-3.03,3.09-3.03c1.93,0,3.86,0,5.79,0
		c1.81,0,3.09,1.29,3.1,3.09C28.48,6.42,28.48,7.38,28.48,8.34z M18,8.34c0,0.97,0,1.94,0,2.91c0.01,0.99,0.6,1.59,1.59,1.6
		c1.93,0.01,3.86,0.01,5.79,0c0.98,0,1.59-0.61,1.6-1.6c0.01-1.92,0.01-3.84,0-5.75c0-1-0.62-1.62-1.62-1.62
		c-1.92-0.01-3.84-0.01-5.75,0c-0.99,0-1.6,0.61-1.61,1.6C18,6.42,18,7.38,18,8.34z"/>
	<path d="M28.48,21.86c0,0.96,0,1.92,0,2.88c-0.01,1.77-1.26,3.07-3.03,3.09c-1.98,0.03-3.95,0.03-5.93,0
		c-1.74-0.02-3-1.29-3.02-3.03c-0.02-1.98-0.02-3.95,0-5.93c0.02-1.77,1.32-3.02,3.1-3.02c1.93,0,3.86,0,5.79,0
		c1.8,0,3.09,1.29,3.09,3.1C28.48,19.92,28.48,20.89,28.48,21.86z M22.46,26.33c0.97,0,1.94,0,2.91,0c1-0.01,1.61-0.61,1.61-1.62
		c0.01-1.91,0.01-3.81,0-5.72c0-1.02-0.62-1.64-1.64-1.64c-1.91,0-3.81,0-5.72,0c-1.01,0-1.62,0.61-1.62,1.62c0,1.92,0,3.84,0,5.75
		c0,1.02,0.6,1.61,1.61,1.61C20.56,26.33,21.51,26.33,22.46,26.33z"/>
	<path d="M7.53,2.38c0.96,0,1.92,0,2.88,0c1.77,0.01,3.07,1.26,3.09,3.03c0.03,1.98,0.03,3.95,0,5.93c-0.02,1.74-1.29,3-3.03,3.02
		c-1.98,0.02-3.95,0.03-5.93,0c-1.77-0.02-3.02-1.33-3.02-3.1c0-1.93,0-3.86,0-5.79c0-1.8,1.29-3.09,3.1-3.09
		C5.59,2.37,6.56,2.38,7.53,2.38z M12,8.38c0-0.96,0-1.92,0-2.88c0-1.01-0.61-1.63-1.61-1.63c-1.92-0.01-3.84-0.01-5.75,0
		c-1,0-1.62,0.63-1.62,1.63c-0.01,1.92-0.01,3.84,0,5.75c0,0.99,0.62,1.6,1.6,1.6c1.93,0.01,3.86,0.01,5.79,0
		c0.99,0,1.59-0.6,1.59-1.6C12,10.29,12,9.33,12,8.38z"/>
	<path d="M1.52,21.85c0-0.97,0-1.94,0-2.91c0.01-1.78,1.29-3.08,3.07-3.08c1.94-0.01,3.88-0.01,5.82,0c1.75,0,3.05,1.25,3.08,3
		c0.03,1.99,0.03,3.97,0,5.96c-0.03,1.74-1.29,2.99-3.04,3.01c-1.96,0.02-3.93,0.02-5.89,0c-1.79-0.02-3.04-1.32-3.05-3.11
		C1.52,23.76,1.52,22.81,1.52,21.85z M7.49,26.33c0.96,0,1.92,0,2.88,0c1.04,0,1.63-0.59,1.63-1.63c0-1.91,0-3.81,0-5.72
		c0-1.03-0.61-1.63-1.64-1.63c-1.89,0-3.79,0-5.68,0c-1.05,0-1.66,0.61-1.66,1.66c0,1.89,0,3.79,0,5.68c0,1.03,0.6,1.64,1.63,1.64
		C5.59,26.33,6.54,26.33,7.49,26.33z"/>
</g>
</svg>
