<?xml version="1.0" encoding="utf-8"?>
<!-- Generator: Adobe Illustrator 26.0.1, SVG Export Plug-In . SVG Version: 6.00 Build 0)  -->
<svg version="1.1" id="Layer_1" xmlns="http://www.w3.org/2000/svg" xmlns:xlink="http://www.w3.org/1999/xlink" x="0px" y="0px"
	 viewBox="0 0 60 60" style="enable-background:new 0 0 60 60;" xml:space="preserve">
<style type="text/css">
	.st0{fill:#FFFFFF;}
	.st1{fill:none;stroke:#999999;stroke-width:0.75;stroke-miterlimit:10;}
	.st2{opacity:0.7;}
	.st3{clip-path:url(#SVGID_00000134956588250004677900000012616219689501276317_);fill:#FFFFFF;}
	.st4{clip-path:url(#SVGID_00000078039090316918439920000012170671540884813718_);fill:#FFFFFF;}
	.st5{clip-path:url(#SVGID_00000089551425616329484510000018109563358499568772_);fill:#FFFFFF;}
	.st6{clip-path:url(#SVGID_00000053546430158666695810000016923901061788148658_);fill:#FFFFFF;}
	.st7{fill:none;stroke:#CCCCCC;stroke-miterlimit:10;}
	.st8{fill:url(#SVGID_00000076566176513018844240000011235821276404918703_);}
	.st9{fill:#3184B6;}
	.st10{fill:#1F688C;}
	.st11{fill:#145366;}
	.st12{fill:url(#SVGID_00000139979215680582789590000008259743221001795262_);}
	.st13{fill:url(#SVGID_00000064341118176329294070000011933359985163204523_);}
	.st14{fill:url(#SVGID_00000010292682217650624660000006139840107614882190_);}
	.st15{fill:none;}
	.st16{fill:#20698E;}
	.st17{fill:#3B91BC;}
	.st18{fill:#333333;}
	.st19{fill:#666666;}
	.st20{clip-path:url(#SVGID_00000158714240535461765750000006525472216096002983_);fill:#FFFFFF;}
	.st21{clip-path:url(#SVGID_00000150816170230915210000000003963170305384522893_);fill:#FFFFFF;}
	.st22{clip-path:url(#SVGID_00000083801331991666991690000004754986706648654266_);fill:#FFFFFF;}
	.st23{clip-path:url(#SVGID_00000116927818505139235980000017653875571686246032_);fill:#FFFFFF;}
	.st24{fill:#F77B0B;}
	.st25{fill:none;stroke:#FFFFFF;stroke-miterlimit:10;}
	.st26{filter:url(#Adobe_OpacityMaskFilter);}
	.st27{enable-background:new    ;}
	.st28{opacity:0.3;mask:url(#SVGID_00000142857956884725666180000013795188271170751880_);}
	.st29{clip-path:url(#SVGID_00000147925960547802003680000000332894736013246344_);}
	.st30{clip-path:url(#SVGID_00000036212926394994977860000008472718337896285622_);}
	.st31{fill:none;stroke:#F2F2F2;stroke-miterlimit:10;}
	.st32{fill:url(#SVGID_00000080887785098523382190000000396824405644317068_);}
	.st33{fill:url(#SVGID_00000049185241227787843870000015672371376147408271_);}
	.st34{fill:url(#SVGID_00000066497847091196145130000004215282495202363544_);}
	.st35{clip-path:url(#SVGID_00000031170319902620373730000017972273351289783682_);}
	.st36{opacity:0.2;}
	.st37{clip-path:url(#SVGID_00000090979974381068441610000004352183920135197086_);}
	.st38{clip-path:url(#SVGID_00000009582991365862351600000008846497077434673306_);}
	.st39{fill:url(#SVGID_00000157274125148132224490000008973041728990129331_);}
	.st40{fill:url(#SVGID_00000142879753136215913430000005398801388666215589_);}
	.st41{clip-path:url(#SVGID_00000152245137301057818780000002843315264623728309_);}
	.st42{fill:none;stroke:#999999;stroke-width:0.5;stroke-miterlimit:10;}
	.st43{fill:#F4F4F4;stroke:#999999;stroke-width:0.25;stroke-miterlimit:10;}
	.st44{fill:none;stroke:#999999;stroke-width:0.25;stroke-miterlimit:10;}
	.st45{fill:url(#SVGID_00000151502924211738449860000014676857377618858635_);}
	.st46{fill:url(#SVGID_00000000914324997141592680000014795874087611133585_);}
	.st47{fill:url(#SVGID_00000024695501368075832910000003252480819839814071_);}
	.st48{fill:url(#SVGID_00000010270337927132675170000008537563930144063679_);}
	.st49{fill:none;stroke:#000000;stroke-width:2;stroke-miterlimit:10;}
	.st50{fill:url(#SVGID_00000085953495995019905880000009173901966525228949_);}
	.st51{fill:url(#SVGID_00000103971078826416258370000003564791848020806579_);}
	.st52{fill:#F0EFF5;}
</style>
<g>
	<path d="M2.58,20.34C2.95,18.8,4.01,18,5.42,17.41c7.04-2.98,14.07-5.99,21.08-9.03c2.35-1.02,4.64-1.02,6.99-0.01
		c7.2,3.11,14.41,6.19,21.62,9.27c1.35,0.58,2.18,1.53,2.3,3.02c0.12,1.47-0.63,2.77-2.04,3.39c-2.25,1-4.52,1.95-6.78,2.92
		c-0.54,0.23-1.07,0.48-1.63,0.69c-0.31,0.11-0.39,0.29-0.38,0.6c0.01,1.75-0.04,3.5,0.02,5.25c0.08,2.64-1.1,4.63-3.11,6.19
		c-2.43,1.9-5.26,2.9-8.26,3.44c-4.75,0.85-9.45,0.64-14.04-0.95c-2.37-0.82-4.54-2-6.19-3.96c-1.05-1.25-1.58-2.69-1.58-4.32
		c0-1.87,0.01-3.75-0.01-5.62c0-0.18-0.09-0.46-0.21-0.52c-1.38-0.62-2.77-1.2-4.23-1.83c-0.01,0.24-0.03,0.41-0.03,0.58
		c0,3.57,0,7.14,0,10.71c0,0.26-0.03,0.49,0.29,0.66c1.53,0.84,1.89,2.38,0.94,3.85c-0.03,0.04-0.05,0.09-0.09,0.18
		c1.04,1.07,0.8,2.48,0.96,3.78c0.18,1.45,0.23,2.92,0.42,4.37c0.21,1.57-0.74,2.42-2.08,2.33c-0.94-0.06-1.89,0-2.84-0.02
		c-1.16-0.02-1.87-0.84-1.76-2c0.2-2.19,0.36-4.38,0.62-6.55c0.08-0.66,0.4-1.3,0.64-2.07c-0.1-0.26-0.35-0.69-0.43-1.15
		c-0.21-1.12,0.31-2.15,1.34-2.68C7.22,37.76,7.3,37.6,7.3,37.3c-0.01-3.89-0.01-7.78,0-11.68c0-0.31-0.08-0.48-0.38-0.59
		c-0.5-0.18-0.97-0.45-1.48-0.62c-1.44-0.49-2.47-1.38-2.86-2.9C2.58,21.12,2.58,20.73,2.58,20.34z M10.62,24.82
		c0.32,0.15,0.49,0.24,0.66,0.31c5.31,2.27,10.62,4.53,15.92,6.83c1.88,0.81,3.71,0.82,5.59,0c3.99-1.73,7.99-3.43,11.99-5.14
		c3.21-1.38,6.42-2.75,9.63-4.13c0.63-0.27,1.15-0.64,1.31-1.37c0.21-1-0.22-1.72-1.33-2.19c-7.25-3.11-14.51-6.22-21.76-9.34
		c-1.79-0.77-3.55-0.73-5.34,0.03c-7.2,3.1-14.41,6.18-21.62,9.27c-0.24,0.1-0.49,0.22-0.71,0.38c-0.98,0.68-1.01,2.26,0.01,2.87
		c0.87,0.51,1.84,0.86,2.77,1.26c0.1,0.04,0.24,0,0.36-0.02c5.67-0.98,11.35-1.96,17.02-2.94c0.36-0.06,0.64-0.15,0.81-0.55
		c0.13-0.31,0.42-0.58,0.69-0.79c1.66-1.27,5.11-1.25,6.78,0.03c1.21,0.92,1.2,2.32-0.04,3.23c-0.98,0.71-2.11,0.93-3.29,0.93
		c-1.3,0-2.57-0.19-3.62-1.06c-0.27-0.22-0.5-0.27-0.82-0.22c-4.06,0.71-8.11,1.41-12.17,2.12C12.58,24.47,11.67,24.63,10.62,24.82z
		 M15.22,35.15c-0.04,0.01-0.07,0.02-0.11,0.03c0.33,0.6,0.59,1.24,0.99,1.78c1.18,1.58,2.82,2.57,4.61,3.27
		c5.85,2.28,11.76,2.32,17.69,0.35c1.89-0.63,3.63-1.58,5.03-3.05c0.65-0.69,1.17-1.47,1.38-2.53c-0.16,0.13-0.24,0.18-0.31,0.26
		c-0.99,1.03-2.16,1.81-3.42,2.45c-0.6,0.31-1.07,0.22-1.3-0.23c-0.22-0.45-0.03-0.88,0.54-1.22c0.57-0.33,1.16-0.64,1.69-1.03
		c2.92-2.15,3.1-3.8,2.84-6.65c-0.19,0.07-0.37,0.14-0.55,0.21c-3.6,1.54-7.22,3.06-10.81,4.64c-2.35,1.03-4.64,1.04-6.99,0.01
		c-3.59-1.57-7.2-3.1-10.81-4.64c-0.19-0.08-0.39-0.15-0.64-0.24c0,0.67,0.01,1.27,0,1.88c-0.03,1.28,0.44,2.37,1.26,3.32
		c1.46,1.68,3.38,2.66,5.43,3.38c3.7,1.3,7.53,1.53,11.4,1.15c0.68-0.07,1.07,0.17,1.13,0.68c0.06,0.55-0.29,0.88-0.97,0.95
		c-2.48,0.25-4.95,0.25-7.42-0.11c-2.9-0.42-5.69-1.21-8.19-2.79C16.84,36.48,16.05,35.78,15.22,35.15z M9.84,50.7
		c-0.22-2.36-0.42-4.68-0.65-7c-0.05-0.5-0.38-0.83-0.9-0.93c-0.7-0.14-1.22,0.36-1.31,1.26c-0.11,1.15-0.21,2.3-0.31,3.46
		c-0.09,1.06-0.18,2.12-0.27,3.21C7.57,50.7,8.68,50.7,9.84,50.7z M30.03,21.84c0.82-0.01,1.62-0.15,2.34-0.59
		c0.36-0.22,0.38-0.41,0.02-0.66c-1.14-0.78-3.6-0.78-4.75-0.01c-0.35,0.23-0.39,0.43-0.01,0.66
		C28.36,21.69,29.17,21.83,30.03,21.84z M9.02,40.2c0.01-0.52-0.37-0.92-0.88-0.93c-0.51-0.01-0.93,0.38-0.95,0.88
		c-0.02,0.48,0.41,0.93,0.89,0.95C8.58,41.11,9.01,40.7,9.02,40.2z"/>
	<path d="M36.33,39.43c-0.56,0-0.87-0.18-0.97-0.6c-0.09-0.41,0.03-0.78,0.44-0.92c0.65-0.22,1.32-0.4,2-0.54
		c0.42-0.09,0.74,0.16,0.85,0.56c0.12,0.4-0.01,0.79-0.41,0.93C37.57,39.09,36.88,39.26,36.33,39.43z"/>
</g>
</svg>
