<?xml version="1.0" encoding="utf-8"?>
<!-- Generator: Adobe Illustrator 26.0.1, SVG Export Plug-In . SVG Version: 6.00 Build 0)  -->
<svg version="1.1" id="Layer_1" xmlns="http://www.w3.org/2000/svg" xmlns:xlink="http://www.w3.org/1999/xlink" x="0px" y="0px"
	 viewBox="0 0 50 43.38" style="enable-background:new 0 0 50 43.38;" xml:space="preserve">
<style type="text/css">
	.st0{fill:#FFFFFF;}
	.st1{fill:#3184B6;}
	.st2{fill:#1F688C;}
	.st3{fill:#145366;}
	.st4{fill:url(#SVGID_1_);}
	.st5{fill:url(#SVGID_00000003783146386765413790000004653191543277591456_);}
	.st6{fill:url(#SVGID_00000156566566627804560970000006214495200065590427_);}
	.st7{fill:none;}
	.st8{fill:#20698E;}
	.st9{fill:#3B91BC;}
	.st10{fill:#333333;}
	.st11{fill:none;stroke:#CCCCCC;stroke-miterlimit:10;}
	.st12{fill:#666666;}
	.st13{opacity:0.7;}
	.st14{clip-path:url(#SVGID_00000174571534272601618750000000729057335217554353_);fill:#FFFFFF;}
	.st15{clip-path:url(#SVGID_00000144307150392072912250000017711334599374344115_);fill:#FFFFFF;}
	.st16{clip-path:url(#SVGID_00000068647641302202268950000004412045060599404167_);fill:#FFFFFF;}
	.st17{clip-path:url(#SVGID_00000023275956995653754350000000661520987767937442_);fill:#FFFFFF;}
	.st18{fill:#F77B0B;}
	.st19{fill:none;stroke:#FFFFFF;stroke-miterlimit:10;}
	.st20{filter:url(#Adobe_OpacityMaskFilter);}
	.st21{enable-background:new    ;}
	.st22{opacity:0.3;mask:url(#SVGID_00000104696863366854250750000012922067592214213290_);}
	.st23{clip-path:url(#SVGID_00000115502881692299835250000014648337057498155916_);}
	.st24{clip-path:url(#SVGID_00000111885168906207570560000008224580939006709166_);}
	.st25{fill:none;stroke:#999999;stroke-width:0.5;stroke-miterlimit:10;}
	.st26{fill:none;stroke:#F2F2F2;stroke-miterlimit:10;}
	.st27{fill:url(#SVGID_00000071549391611196417810000003307153600600940673_);}
	.st28{fill:url(#SVGID_00000072254340241050461980000017874938862291456423_);}
	.st29{fill:url(#SVGID_00000074422156187987739420000016361274415450236055_);}
	.st30{clip-path:url(#SVGID_00000161608646879900955950000006581450999437631153_);}
	.st31{clip-path:url(#SVGID_00000028323773804384520910000009389050778476037541_);}
	.st32{opacity:0.2;}
	.st33{clip-path:url(#SVGID_00000163771977966187053480000015232547015610654615_);}
	.st34{clip-path:url(#SVGID_00000008121480488377695550000000187093809590894514_);}
	.st35{fill:none;stroke:#999999;stroke-width:0.75;stroke-miterlimit:10;}
	.st36{fill:url(#SVGID_00000128449329420657508610000003128126090954116024_);}
	.st37{fill:url(#SVGID_00000146459918775819132000000014566164128743328138_);}
	.st38{fill:#3184B6;stroke:#145366;stroke-miterlimit:10;}
	.st39{fill:#55FF3F;}
	.st40{fill:url(#SVGID_00000106122156220734171770000002907715553500367233_);}
	.st41{fill:url(#SVGID_00000181052278913967505650000011722668539664166832_);}
	.st42{fill:url(#SVGID_00000060728518432761013610000008238665787176466834_);}
	.st43{fill:url(#SVGID_00000036934571642710192410000001507634555857490577_);}
	.st44{fill:url(#SVGID_00000168094282095558850200000015203356561721104276_);}
	.st45{fill:url(#SVGID_00000065774353544926408590000013020284784057915264_);}
</style>
<g>
	<path d="M6.96,19.03c0-0.17,0-0.33,0-0.5c0-3.13,0-6.26,0-9.39c0-1.45,0.8-2.27,2.25-2.27c9.55,0,19.1,0,28.66,0
		c1.46,0,2.26,0.81,2.27,2.26c0,1.76,0,3.52,0,5.28c0,0.15,0,0.3,0,0.49c0.2,0,0.35,0,0.5,0c1.36,0,2.71,0,4.07,0
		c0.84,0,1.29,0.44,1.29,1.28c0,6.36,0,12.71,0,19.07c0,0.86-0.44,1.27-1.34,1.27c-4.03,0-8.06,0-12.09,0c-5.66,0-11.32,0-16.98,0
		c-0.79,0-0.91-0.13-0.9-0.92c0.03-1.8,1.37-3.14,3.16-3.17c0.9-0.01,1.8,0,2.72,0c0-0.72,0-1.42,0-2.14c-2.19,0-4.37,0-6.61,0
		c0,0.15,0,0.3,0,0.45c0,1.52,0,3.05,0,4.57c0,0.86-0.35,1.22-1.2,1.22c-2.51,0-5.01,0-7.52,0C4.36,36.51,4,36.15,4,35.24
		c0-4.13,0-8.25,0-12.38c0-0.84,0-1.69,0-2.53c0-0.87,0.37-1.23,1.24-1.24c0.53,0,1.05-0.01,1.58-0.01
		C6.85,19.08,6.87,19.06,6.96,19.03z M38.99,14.9c0-1.95,0-3.83,0-5.71c0-0.88-0.29-1.16-1.18-1.16c-9.51,0-19.02,0-28.53,0
		c-0.88,0-1.17,0.29-1.17,1.17c0,3.14,0,6.29,0,9.43c0,0.15,0.01,0.29,0.02,0.47c0.19,0,0.34,0,0.49,0c1.4,0,2.8-0.01,4.19,0
		c0.78,0,1.14,0.38,1.14,1.15c0.01,1.16,0,2.33,0,3.49c0,0.15,0,0.29,0,0.43c5.18,0,10.3,0,15.45,0c0-0.19,0-0.35,0-0.52
		c0-2.38,0-4.76,0-7.15c0-1.28,0.34-1.61,1.63-1.61c2.46,0,4.93,0,7.39,0C38.61,14.9,38.77,14.9,38.99,14.9z M5.17,32.97
		c2.56,0,5.08,0,7.62,0c0-3.46,0-6.89,0-10.33c-2.56,0-5.08,0-7.62,0C5.17,26.09,5.17,29.5,5.17,32.97z M44.83,16.08
		c-4.77,0-9.51,0-14.25,0c0,6.43,0,12.83,0,19.26c4.75,0,9.49,0,14.25,0C44.83,28.91,44.83,22.52,44.83,16.08z M29.4,25.38
		c-5.16,0-10.27,0-15.4,0c0,1.25,0,2.47,0,3.7c5.15,0,10.27,0,15.4,0C29.4,27.83,29.4,26.61,29.4,25.38z M15.89,35.34
		c4.52,0,9.01,0,13.49,0c0-0.6,0-1.17,0-1.76c-0.19,0-0.34,0-0.49,0c-2.66,0-5.31,0-7.97,0c-1.04,0-2.08-0.01-3.11,0
		C16.78,33.6,15.94,34.37,15.89,35.34z M5.17,35.35c2.56,0,5.08,0,7.63,0c0-0.4,0-0.78,0-1.16c-2.56,0-5.09,0-7.63,0
		C5.17,34.58,5.17,34.94,5.17,35.35z M12.8,20.27c-2.56,0-5.09,0-7.62,0c0,0.4,0,0.77,0,1.15c2.56,0,5.09,0,7.62,0
		C12.8,21.02,12.8,20.65,12.8,20.27z M21.79,30.28c0,0.72,0,1.41,0,2.11c1.19,0,2.36,0,3.51,0c0-0.73,0-1.42,0-2.11
		C24.11,30.28,22.96,30.28,21.79,30.28z M26.52,30.27c0,0.73,0,1.42,0,2.12c0.97,0,1.92,0,2.87,0c0-0.72,0-1.41,0-2.12
		C28.43,30.27,27.49,30.27,26.52,30.27z"/>
	<path d="M44.08,25.14c0,2.48,0,4.96,0,7.44c0,0.74-0.16,0.9-0.9,0.9c-3.64,0-7.28,0-10.92,0c-0.75,0-0.91-0.16-0.91-0.9
		c0-4.96,0-9.92,0-14.87c0-0.74,0.16-0.9,0.91-0.9c3.64,0,7.28,0,10.92,0c0.75,0,0.91,0.15,0.91,0.89
		C44.08,20.19,44.08,22.66,44.08,25.14z M42.9,17.99c-3.48,0-6.92,0-10.38,0c0,4.79,0,9.55,0,14.31c3.47,0,6.91,0,10.38,0
		C42.9,27.53,42.9,22.77,42.9,17.99z"/>
	<path d="M38.25,34.4c0,0.33-0.27,0.6-0.56,0.57c-0.32-0.03-0.5-0.22-0.52-0.54c-0.01-0.31,0.25-0.55,0.56-0.53
		C38.06,33.91,38.22,34.11,38.25,34.4z"/>
	<path d="M24.25,27.22c0,0.39-0.32,0.71-0.71,0.71c-0.39,0-0.71-0.33-0.7-0.72c0.01-0.37,0.32-0.68,0.69-0.69
		C23.92,26.51,24.25,26.83,24.25,27.22z"/>
</g>
</svg>
