<?xml version="1.0" encoding="utf-8"?>
<!-- Generator: Adobe Illustrator 26.0.1, SVG Export Plug-In . SVG Version: 6.00 Build 0)  -->
<svg version="1.1" id="Layer_1" xmlns="http://www.w3.org/2000/svg" xmlns:xlink="http://www.w3.org/1999/xlink" x="0px" y="0px"
	 viewBox="0 0 30 30.22" style="enable-background:new 0 0 30 30.22;" xml:space="preserve">
<style type="text/css">
	.st0{fill:#FFFFFF;}
	.st1{fill:#3184B6;}
	.st2{fill:#1F688C;}
	.st3{fill:#145366;}
	.st4{fill:url(#SVGID_1_);}
	.st5{fill:url(#SVGID_00000015332252207788087560000011158474945833699506_);}
	.st6{fill:url(#SVGID_00000020395689218284477020000004179084004994974898_);}
	.st7{fill:none;}
	.st8{fill:#20698E;}
	.st9{fill:#3B91BC;}
	.st10{fill:#333333;}
	.st11{fill:none;stroke:#CCCCCC;stroke-miterlimit:10;}
	.st12{fill:#666666;}
	.st13{opacity:0.7;}
	.st14{clip-path:url(#SVGID_00000170959392221056218250000009245684006017311920_);fill:#FFFFFF;}
	.st15{clip-path:url(#SVGID_00000114063929029695354810000005539939638175499144_);fill:#FFFFFF;}
	.st16{clip-path:url(#SVGID_00000168801942837296374820000005049625761128692410_);fill:#FFFFFF;}
	.st17{clip-path:url(#SVGID_00000050635227472012024070000009950015207084207803_);fill:#FFFFFF;}
	.st18{fill:#F77B0B;}
	.st19{fill:none;stroke:#FFFFFF;stroke-miterlimit:10;}
	.st20{filter:url(#Adobe_OpacityMaskFilter);}
	.st21{enable-background:new    ;}
	.st22{opacity:0.3;mask:url(#SVGID_00000027598500564403654370000015822597920486769852_);}
	.st23{clip-path:url(#SVGID_00000008117324146301760080000003360410143307404950_);}
	.st24{clip-path:url(#SVGID_00000070803589178804875500000007957177279404902331_);}
	.st25{clip-path:url(#SVGID_00000091709914968228507660000001550211122554905504_);fill:#FFFFFF;}
	.st26{clip-path:url(#SVGID_00000136376165398654052190000014056530325295293356_);fill:#FFFFFF;}
	.st27{clip-path:url(#SVGID_00000135672665952445223400000014593386306021905078_);fill:#FFFFFF;}
	.st28{clip-path:url(#SVGID_00000061457509278616470730000016735245827226127518_);fill:#FFFFFF;}
	.st29{filter:url(#Adobe_OpacityMaskFilter_00000158001387738786499930000010961008982638879653_);}
	.st30{opacity:0.3;mask:url(#SVGID_00000154427142640725350470000001186568715263402686_);}
	.st31{clip-path:url(#SVGID_00000119120095896969182080000005899215526788861617_);}
	.st32{clip-path:url(#SVGID_00000040571227953442772740000011721674094206786953_);}
	.st33{fill:none;stroke:#999999;stroke-width:0.5;stroke-miterlimit:10;}
	.st34{fill:none;stroke:#F2F2F2;stroke-miterlimit:10;}
	.st35{fill:url(#SVGID_00000132087382918301209730000013909113877634234279_);}
	.st36{fill:url(#SVGID_00000183927538999596402670000010036447706137692310_);}
	.st37{fill:url(#SVGID_00000159452095351945750870000005984512345211481015_);}
	.st38{clip-path:url(#SVGID_00000039836708724389352310000017819639289682753707_);}
	.st39{clip-path:url(#SVGID_00000093163557271850177190000017305272264000467368_);}
	.st40{opacity:0.2;}
	.st41{clip-path:url(#SVGID_00000036953514978249978400000002845897309891954857_);}
	.st42{clip-path:url(#SVGID_00000075857411075701689180000006187815206237990287_);}
	.st43{fill:none;stroke:#999999;stroke-width:0.75;stroke-miterlimit:10;}
	.st44{fill:url(#SVGID_00000083794597643516149890000003469451805306462902_);}
	.st45{fill:url(#SVGID_00000099652736030128161650000006758173504273277572_);}
	.st46{fill:#3184B6;stroke:#145366;stroke-miterlimit:10;}
	.st47{fill:#55FF3F;}
	.st48{fill:url(#SVGID_00000139995827262252295790000000165617601877346228_);}
	.st49{fill:url(#SVGID_00000145026456167491984470000006682425366283824572_);}
	.st50{fill:url(#SVGID_00000071543968140347156110000006535038224486237340_);}
	.st51{fill:url(#SVGID_00000041255720188634921700000015017096148258136223_);}
	.st52{fill:url(#SVGID_00000048486358824645396860000017094423893640625307_);}
	.st53{fill:url(#SVGID_00000018218582227446115610000005830289006905227415_);}
</style>
<g>
	<path class="st1" d="M14.97,28.54c-2.86,0-5.73,0.01-8.59,0c-2.26-0.01-4.09-1.46-4.59-3.63c-0.08-0.35-0.11-0.72-0.11-1.08
		c-0.01-3.52,0-7.05-0.01-10.57c0-1.58,0.64-2.85,1.88-3.83C6.36,7.22,9.17,5,11.98,2.79c1.85-1.46,4.15-1.48,6.01-0.02
		c2.83,2.22,5.66,4.45,8.48,6.68c1.23,0.97,1.86,2.24,1.86,3.81c0,3.52,0.01,7.05,0,10.57c-0.01,2.4-1.61,4.27-3.99,4.66
		c-0.29,0.05-0.58,0.05-0.87,0.05C20.63,28.54,17.8,28.54,14.97,28.54z"/>
	<path class="st0" d="M15.02,22.55c1.03,0,2.06,0,3.09,0c0.13,0,0.27,0.01,0.4,0.04c0.3,0.08,0.49,0.34,0.49,0.64
		c0,0.29-0.19,0.54-0.48,0.62c-0.13,0.03-0.27,0.04-0.4,0.04c-2.08,0-4.16,0-6.24,0c-0.12,0-0.25-0.01-0.37-0.03
		c-0.3-0.07-0.5-0.33-0.5-0.63c0-0.3,0.19-0.56,0.49-0.64c0.13-0.03,0.27-0.04,0.4-0.04C12.94,22.55,13.98,22.55,15.02,22.55z"/>
</g>
</svg>
