<?xml version="1.0" encoding="utf-8"?>
<!-- Generator: Adobe Illustrator 26.0.1, SVG Export Plug-In . SVG Version: 6.00 Build 0)  -->
<svg version="1.1" id="Layer_1" xmlns="http://www.w3.org/2000/svg" xmlns:xlink="http://www.w3.org/1999/xlink" x="0px" y="0px"
	 viewBox="0 0 30 30" style="enable-background:new 0 0 30 30;" xml:space="preserve">
<style type="text/css">
	.st0{fill:#FFFFFF;}
	.st1{fill:#3184B6;}
	.st2{fill:#1F688C;}
	.st3{fill:#145366;}
	.st4{fill:url(#SVGID_1_);}
	.st5{fill:url(#SVGID_00000016066166991803321220000002568949835621229700_);}
	.st6{fill:url(#SVGID_00000156568355409703197330000010059571477553907334_);}
	.st7{fill:none;}
	.st8{fill:#20698E;}
	.st9{fill:#3B91BC;}
	.st10{fill:#333333;}
	.st11{fill:none;stroke:#CCCCCC;stroke-miterlimit:10;}
	.st12{fill:#666666;}
	.st13{opacity:0.7;}
	.st14{clip-path:url(#SVGID_00000041290653739087161130000002900549943370402703_);fill:#FFFFFF;}
	.st15{clip-path:url(#SVGID_00000048462728175728645390000010235908235005575836_);fill:#FFFFFF;}
	.st16{clip-path:url(#SVGID_00000090286112744837966080000000433923459211564468_);fill:#FFFFFF;}
	.st17{clip-path:url(#SVGID_00000036943824798881598540000011904414580515859899_);fill:#FFFFFF;}
	.st18{fill:#F77B0B;}
	.st19{fill:none;stroke:#FFFFFF;stroke-miterlimit:10;}
	.st20{filter:url(#Adobe_OpacityMaskFilter);}
	.st21{enable-background:new    ;}
	.st22{opacity:0.3;mask:url(#SVGID_00000021824724458455639690000014191076560455492783_);}
	.st23{clip-path:url(#SVGID_00000122699941007693006420000002700603558885021876_);}
	.st24{clip-path:url(#SVGID_00000117667148303841862530000000863672758391277452_);}
	.st25{fill:none;stroke:#999999;stroke-width:0.5;stroke-miterlimit:10;}
	.st26{fill:none;stroke:#F2F2F2;stroke-miterlimit:10;}
	.st27{fill:url(#SVGID_00000054225407063698111600000015214869470511145088_);}
	.st28{fill:url(#SVGID_00000139256905521901778920000006048523317772610462_);}
	.st29{fill:url(#SVGID_00000060000565976208794020000000075510553818175149_);}
	.st30{clip-path:url(#SVGID_00000131349758055130899050000005903208127089499018_);}
	.st31{clip-path:url(#SVGID_00000115476908974565457320000004930751909017991327_);}
	.st32{opacity:0.2;}
	.st33{clip-path:url(#SVGID_00000115474928776177682950000000985788307238940548_);}
	.st34{clip-path:url(#SVGID_00000008112466479993190120000008832933053757990019_);}
	.st35{fill:none;stroke:#999999;stroke-width:0.75;stroke-miterlimit:10;}
	.st36{fill:url(#SVGID_00000104677371624175743840000012598132316455224974_);}
	.st37{fill:url(#SVGID_00000156546995730035527850000015692429774913718694_);}
	.st38{fill:#3184B6;stroke:#145366;stroke-miterlimit:10;}
	.st39{fill:#55FF3F;}
	.st40{fill:url(#SVGID_00000124159797590637965360000005205922127190492601_);}
	.st41{fill:url(#SVGID_00000039839120724163108600000012887722143501519290_);}
	.st42{fill:url(#SVGID_00000106847033976915900920000014326306305919985552_);}
	.st43{fill:url(#SVGID_00000169532259771228616240000006441596901668491671_);}
	.st44{fill:url(#SVGID_00000085225253801412770260000008771958307347589027_);}
	.st45{fill:url(#SVGID_00000070797927620995884660000000362035540962256533_);}
</style>
<g>
	<path d="M14.85,27c-1.25-1.19-2.4-2.47-3.49-3.81c-1.39-1.7-2.66-3.49-3.68-5.44c-0.71-1.37-1.31-2.78-1.56-4.31
		C5.71,10.88,6.3,8.57,7.87,6.52c1.45-1.89,3.38-3.01,5.73-3.41c0.26-0.04,0.52-0.07,0.78-0.11c0.41,0,0.81,0,1.22,0
		c0.47,0.08,0.95,0.12,1.4,0.24c3.55,0.93,5.81,3.17,6.74,6.72c0.53,2.03,0.18,3.99-0.58,5.91c-0.76,1.94-1.84,3.7-3.05,5.38
		c-1.39,1.93-2.94,3.72-4.62,5.41c-0.12,0.12-0.25,0.23-0.37,0.35C15.04,27,14.95,27,14.85,27z M15,26.13
		c0.09-0.11,0.15-0.19,0.21-0.25c1.47-1.51,2.85-3.11,4.09-4.82c1.3-1.78,2.47-3.64,3.25-5.72c0.58-1.55,0.85-3.14,0.55-4.8
		c-0.66-3.75-3.92-6.63-7.73-6.78C13,3.67,10.9,4.44,9.21,6.13c-2,2-2.79,4.43-2.33,7.23c0.24,1.5,0.85,2.88,1.57,4.21
		c1.34,2.49,3.06,4.71,4.94,6.81C13.9,24.96,14.44,25.52,15,26.13z"/>
	<path d="M15.01,16.12c-2.3,0-4.14-1.84-4.14-4.14c0-2.27,1.86-4.11,4.14-4.11c2.25,0,4.1,1.86,4.11,4.1
		C19.12,14.26,17.28,16.12,15.01,16.12z M14.99,8.63c-1.87,0.01-3.37,1.51-3.37,3.39c0,1.86,1.53,3.37,3.4,3.36
		c1.85-0.01,3.36-1.54,3.35-3.39C18.36,10.13,16.84,8.62,14.99,8.63z"/>
</g>
</svg>
