<svg enable-background="new 0 0 32 32" viewBox="0 0 32 32" xmlns="http://www.w3.org/2000/svg"><g id="Grid" display="none"/><g id="podcast"/><g id="reward"/><g id="seo"/><g id="share"/><g id="video"/><g id="idea"/><g id="qna"/><g id="article"/><g id="engagement"/><g id="target"/><g id="search_data"/><g id="email"/><g id="survey"/><g id="blog"><path d="m24 1.1h-16c-3.805 0-6.9 3.095-6.9 6.9v16c0 3.805 3.096 6.9 6.9 6.9h16c3.805 0 6.9-3.096 6.9-6.9v-16c0-3.805-3.095-6.9-6.9-6.9zm-16 1.8h16c2.812 0 5.1 2.288 5.1 5.1v1.6h-26.2v-1.6c0-2.812 2.287-5.1 5.1-5.1zm16 26.2h-16c-2.813 0-5.1-2.287-5.1-5.1v-12.6h26.2v12.6c0 2.813-2.288 5.1-5.1 5.1z"/><path d="m7.043 7.15h.492c.497 0 .9-.403.9-.9s-.403-.9-.9-.9h-.492c-.497 0-.9.403-.9.9s.403.9.9.9z"/><path d="m10.918 7.15h.492c.497 0 .9-.403.9-.9s-.403-.9-.9-.9h-.492c-.497 0-.9.403-.9.9s.403.9.9.9z"/><path d="m16.665 7.15h8.292c.497 0 .9-.403.9-.9s-.403-.9-.9-.9h-8.292c-.497 0-.9.403-.9.9s.403.9.9.9z"/><path d="m23.819 23.6h-15.638c-.497 0-.9.403-.9.9s.403.9.9.9h15.639c.497 0 .9-.403.9-.9s-.404-.9-.901-.9z"/><path d="m23.819 19.35h-15.638c-.497 0-.9.403-.9.9s.403.9.9.9h15.639c.497 0 .9-.403.9-.9s-.404-.9-.901-.9z"/><path d="m8.181 16.9h7.819c.497 0 .9-.403.9-.9s-.403-.9-.9-.9h-7.819c-.497 0-.9.403-.9.9s.403.9.9.9z"/></g><g id="advertisement"/><g id="goals"/><g id="review"/><g id="planning"/><g id="archive"/><g id="billboard"/><g id="media_share"/><g id="copywriting"/><g id="video_platform"/><g id="feedback"/><g id="statistics"/></svg>