<?xml version="1.0" encoding="utf-8"?>
<!-- Generator: Adobe Illustrator 26.0.1, SVG Export Plug-In . SVG Version: 6.00 Build 0)  -->
<svg version="1.1" id="Layer_1" xmlns="http://www.w3.org/2000/svg" xmlns:xlink="http://www.w3.org/1999/xlink" x="0px" y="0px"
	 viewBox="0 0 50 43.38" style="enable-background:new 0 0 50 43.38;" xml:space="preserve">
<style type="text/css">
	.st0{fill:#FFFFFF;}
	.st1{fill:#3184B6;}
	.st2{fill:#1F688C;}
	.st3{fill:#145366;}
	.st4{fill:url(#SVGID_1_);}
	.st5{fill:url(#SVGID_00000117674729534200714280000001710406299129983395_);}
	.st6{fill:url(#SVGID_00000111883526218402010510000000865961794791540367_);}
	.st7{fill:none;}
	.st8{fill:#20698E;}
	.st9{fill:#3B91BC;}
	.st10{fill:#333333;}
	.st11{fill:none;stroke:#CCCCCC;stroke-miterlimit:10;}
	.st12{fill:#666666;}
	.st13{opacity:0.7;}
	.st14{clip-path:url(#SVGID_00000055697112538983237150000005232140910145830847_);fill:#FFFFFF;}
	.st15{clip-path:url(#SVGID_00000085954691166216107160000001673426443379724735_);fill:#FFFFFF;}
	.st16{clip-path:url(#SVGID_00000160175693284044818960000015203158735658633391_);fill:#FFFFFF;}
	.st17{clip-path:url(#SVGID_00000086673958228258517460000004482520830547547545_);fill:#FFFFFF;}
	.st18{fill:#F77B0B;}
	.st19{fill:none;stroke:#FFFFFF;stroke-miterlimit:10;}
	.st20{filter:url(#Adobe_OpacityMaskFilter);}
	.st21{enable-background:new    ;}
	.st22{opacity:0.3;mask:url(#SVGID_00000040550877233032326240000011221117428471644093_);}
	.st23{clip-path:url(#SVGID_00000028302286609201837220000012286982921140351400_);}
	.st24{clip-path:url(#SVGID_00000025432579497256857200000009641798554057237136_);}
	.st25{fill:none;stroke:#999999;stroke-width:0.5;stroke-miterlimit:10;}
	.st26{fill:none;stroke:#F2F2F2;stroke-miterlimit:10;}
	.st27{fill:url(#SVGID_00000171709867495892929810000016900846730286320568_);}
	.st28{fill:url(#SVGID_00000147197766211723329620000011302086208824894133_);}
	.st29{fill:url(#SVGID_00000119832541130438609470000015894291500882778539_);}
	.st30{clip-path:url(#SVGID_00000012440048718163107480000004770218778327909567_);}
	.st31{clip-path:url(#SVGID_00000121266354058925722230000010385281439899185065_);}
	.st32{opacity:0.2;}
	.st33{clip-path:url(#SVGID_00000016052975722873494000000012598954460110994831_);}
	.st34{clip-path:url(#SVGID_00000065770600814628238640000011299973432922060447_);}
	.st35{fill:none;stroke:#999999;stroke-width:0.75;stroke-miterlimit:10;}
	.st36{fill:url(#SVGID_00000110433209366496867580000004442175716294723725_);}
	.st37{fill:url(#SVGID_00000183215277793074963920000003366926153072290438_);}
	.st38{fill:#3184B6;stroke:#145366;stroke-miterlimit:10;}
	.st39{fill:#55FF3F;}
	.st40{fill:url(#SVGID_00000105423667878021256370000009009949188791598012_);}
	.st41{fill:url(#SVGID_00000137830351914476997190000012955328254453521065_);}
	.st42{fill:url(#SVGID_00000030453816052890601070000006449827585937579446_);}
	.st43{fill:url(#SVGID_00000132057280027723645240000006018359317099528598_);}
	.st44{fill:url(#SVGID_00000145033237612436453770000015346260224670030504_);}
	.st45{fill:url(#SVGID_00000050649940819255561500000014035150953589912205_);}
</style>
<g>
	<path d="M28.95,23.86c-0.55,1.32-1.55,2.08-2.96,2.32c-0.48,0.08-0.85-0.12-0.91-0.53c-0.06-0.38,0.19-0.7,0.67-0.76
		c1.2-0.14,2.25-1.46,2.21-2.64c-0.02-0.56,0.04-1.12,0.07-1.69c0.03-0.56,0.05-1.12,0.08-1.7c-0.06,0.01-0.11,0-0.13,0.02
		c-3.42,2.71-6.03,6.04-7.59,10.15c-1.28,3.35-1.73,6.81-1.45,10.38c0.07,0.89-0.06,1.8-0.13,2.7c-0.03,0.38-0.39,0.61-0.73,0.56
		c-0.35-0.05-0.63-0.38-0.55-0.74c0.27-1.26,0.07-2.52,0.05-3.77c-0.15-7.8,2.72-14.27,8.55-19.42c0.45-0.4,0.92-0.78,1.37-1.18
		c0.4-0.36,0.83-0.54,1.35-0.28c0.5,0.25,0.64,0.68,0.59,1.2c-0.01,0.09,0,0.19,0,0.38c0.53-0.82,1.01-1.58,1.52-2.36
		c-0.05-0.02-0.1-0.07-0.16-0.08c-1.41-0.3-2.58-1.04-3.62-2c-0.33-0.31-0.36-0.7-0.09-0.98c0.26-0.28,0.61-0.27,0.96,0
		c0.44,0.35,0.87,0.72,1.34,1.02c1.17,0.75,2.44,0.88,3.82,0.64c3.07-0.54,6.16-1.02,9.25-1.44c1.48-0.2,2.38-1,2.16-2.83
		c-1.07-0.33-2.15-0.67-3.23-1.01c-1.24-0.39-1.55-0.8-1.57-2.11c0-0.08-0.01-0.16-0.02-0.29c-0.15-0.01-0.3-0.02-0.44-0.02
		c-0.79,0-1.59-0.01-2.38,0.01c-0.42,0.01-0.72-0.13-0.98-0.47c-0.58-0.78-1.17-1.56-1.81-2.29c-1.65-1.88-3.76-2.71-6.32-2.64
		c0.12,0.13,0.19,0.21,0.27,0.3c0.29,0.32,0.3,0.68,0.03,0.95c-0.25,0.26-0.59,0.23-0.93,0.01c-0.44-0.28-0.89-0.61-1.39-0.75
		c-1.05-0.29-1.97,0.07-2.73,0.83c-2.15,2.16-4.3,4.31-6.45,6.46c-0.93,0.93-1.86,1.86-2.79,2.79c-1.02,1.02-1.4,2.22-0.96,3.61
		c0.44,1.39,1.45,2.17,2.86,2.41c2.3,0.39,4.2-0.34,5.61-2.2c1.45-1.91,2.6-3.99,3.38-6.27c0.1-0.3,0.24-0.56,0.58-0.63
		c0.52-0.11,0.92,0.42,0.69,0.97c-0.5,1.2-0.98,2.41-1.59,3.56c-0.56,1.05-1.24,2.04-1.91,3.02c-2.06,3-6.01,3.74-8.87,2.17
		c-0.2,0.24-0.41,0.48-0.61,0.73c-3.17,3.88-5.64,8.18-7.62,12.78c-0.04,0.1-0.08,0.2-0.13,0.3c-0.19,0.38-0.54,0.52-0.88,0.37
		c-0.34-0.15-0.49-0.51-0.32-0.9c0.48-1.09,0.96-2.18,1.48-3.25c1.88-3.85,4.16-7.44,6.93-10.71c0.04-0.05,0.08-0.11,0.13-0.18
		c-0.58-0.68-0.99-1.45-1.13-2.34c-0.29-1.7,0.21-3.14,1.42-4.35c1.88-1.88,3.76-3.77,5.64-5.65c1.19-1.19,2.39-2.38,3.57-3.58
		C22.99,1.6,24,1.17,25.21,1.09c0.66-0.04,1.31-0.28,1.97-0.35c3.27-0.32,6.01,0.71,8.16,3.23c0.5,0.58,0.96,1.2,1.42,1.81
		c0.17,0.22,0.34,0.3,0.62,0.3c2.08-0.02,4.16-0.03,6.25-0.03c0.31,0,0.64,0.02,0.93,0.1c0.81,0.23,1.38,0.98,1.39,1.84
		c0.01,1.24,0.02,2.47,0,3.71c-0.03,1.57-1.18,2.89-2.74,3.14c-3.38,0.53-6.76,1.05-10.14,1.58c-0.19,0.03-0.41,0.15-0.54,0.3
		c-1.17,1.35-2,2.9-2.75,4.51c-0.13,0.28-0.27,0.57-0.41,0.85c-0.17,0.34-0.11,0.47,0.27,0.5c1.09,0.08,2.19,0.12,3.28,0.24
		c2.39,0.27,4.32,2.2,4.66,4.59c0.06,0.43,0.13,0.87,0.16,1.31c0.02,0.3,0.15,0.39,0.44,0.39c0.55,0.01,1.1,0.02,1.64,0.1
		c1.66,0.24,2.68,1.84,2.24,3.48c-0.23,0.85-0.47,1.69-0.74,2.52c-0.57,1.76-1.83,2.61-3.63,2.78c-1.58,0.15-3.16,0.33-4.74,0.5
		c-0.78,0.08-1.11,0.73-0.75,1.43c0.28,0.56,0.57,1.13,0.84,1.7c0.22,0.47,0.12,0.84-0.27,1.01c-0.36,0.17-0.7,0-0.92-0.44
		c-0.28-0.58-0.57-1.16-0.85-1.73c-0.75-1.49,0.18-3.13,1.84-3.29c1.72-0.17,3.43-0.36,5.14-0.56c1.04-0.12,1.73-0.72,2.06-1.71
		c0.28-0.83,0.52-1.68,0.75-2.52c0.28-1.01-0.35-1.84-1.41-1.88c-0.51-0.02-1.01-0.05-1.52-0.08c-0.71-0.05-1.23-0.5-1.36-1.21
		c-0.09-0.51-0.15-1.03-0.22-1.55c-0.31-2.04-1.88-3.46-3.95-3.58C31.21,24.02,30.11,23.94,28.95,23.86z M44.64,9.45
		c0-0.51,0.01-0.95,0-1.38c-0.01-0.38-0.22-0.65-0.6-0.66c-0.95-0.03-1.91-0.01-2.95-0.01c0.15,0.38-0.19,0.85,0.34,1.04
		C42.47,8.79,43.53,9.1,44.64,9.45z"/>
	<path d="M31.36,8.02c-0.54,0.02-1-0.42-1.02-0.96c-0.01-0.52,0.41-0.98,0.93-1.01c0.54-0.03,1.01,0.4,1.04,0.94
		C32.33,7.53,31.89,8,31.36,8.02z"/>
	<path d="M32.14,27.54c0.54,0,0.99,0.45,0.99,0.99c0,0.54-0.46,0.99-1,0.98c-0.52-0.01-0.96-0.45-0.97-0.97
		C31.15,28,31.6,27.54,32.14,27.54z"/>
</g>
</svg>
