<?xml version="1.0" encoding="utf-8"?>
<!-- Generator: Adobe Illustrator 26.0.1, SVG Export Plug-In . SVG Version: 6.00 Build 0)  -->
<svg version="1.1" id="Layer_1" xmlns="http://www.w3.org/2000/svg" xmlns:xlink="http://www.w3.org/1999/xlink" x="0px" y="0px"
	 viewBox="0 0 40 40" style="enable-background:new 0 0 40 40;" xml:space="preserve">
<style type="text/css">
	.st0{fill:url(#SVGID_1_);}
	.st1{fill:url(#SVGID_00000176744732065842913030000015861952057739479969_);}
	.st2{fill:url(#SVGID_00000088812443918865893700000004249145990001663902_);}
	.st3{fill:url(#SVGID_00000090979193771836817030000008299015834459826324_);}
	.st4{fill:url(#SVGID_00000156555152951060458370000003075757252205375375_);}
	.st5{fill:url(#SVGID_00000100364025677865090090000009856306746030105235_);}
	.st6{fill:url(#SVGID_00000132797707324463720110000007005756704302124980_);}
	.st7{fill:url(#SVGID_00000153668420941655011980000003169666759121633724_);}
	.st8{fill:url(#SVGID_00000005227199497807920350000003045356611094198965_);}
	.st9{fill:url(#SVGID_00000062870659783749356950000000526770232050301835_);}
	.st10{fill:#3184B6;}
	.st11{fill:#F9F9F9;}
	.st12{fill:#FFFFFF;}
	.st13{opacity:0.7;}
	.st14{clip-path:url(#SVGID_00000054977350089833449880000010742566750223184569_);fill:#FFFFFF;}
	.st15{clip-path:url(#SVGID_00000065772557530719697650000000699279954889819316_);fill:#FFFFFF;}
	.st16{clip-path:url(#SVGID_00000142141924927690183340000012541471266393148855_);fill:#FFFFFF;}
	.st17{clip-path:url(#SVGID_00000026165334114778823310000013170315974054812042_);fill:#FFFFFF;}
	.st18{fill:none;stroke:#CCCCCC;stroke-miterlimit:10;}
	.st19{fill:url(#SVGID_00000053530178174164673950000002655835559862050233_);}
	.st20{fill:#1F688C;}
	.st21{fill:#145366;}
	.st22{fill:url(#SVGID_00000142143673861530468570000003218521104629795456_);}
	.st23{fill:url(#SVGID_00000178899722431729731330000010154844430943432369_);}
	.st24{fill:url(#SVGID_00000116956678202221260620000004265927746472346281_);}
	.st25{fill:none;}
	.st26{fill:#20698E;}
	.st27{fill:#3B91BC;}
	.st28{fill:#333333;}
	.st29{fill:#666666;}
	.st30{clip-path:url(#SVGID_00000133514754148985370160000013427365157917969298_);fill:#FFFFFF;}
	.st31{clip-path:url(#SVGID_00000094591035638050293700000012220672985808782757_);fill:#FFFFFF;}
	.st32{clip-path:url(#SVGID_00000143584887709623381970000010409460231031678604_);fill:#FFFFFF;}
	.st33{clip-path:url(#SVGID_00000150064127026024149970000013348010481104064930_);fill:#FFFFFF;}
	.st34{fill:#F77B0B;}
	.st35{fill:none;stroke:#FFFFFF;stroke-miterlimit:10;}
	.st36{filter:url(#Adobe_OpacityMaskFilter);}
	.st37{enable-background:new    ;}
	.st38{opacity:0.3;mask:url(#SVGID_00000051385080600124343800000003620863451005699208_);}
	.st39{clip-path:url(#SVGID_00000148633501062146990000000010066246046872796047_);}
	.st40{clip-path:url(#SVGID_00000171701727944293676960000017413161653472581025_);}
	.st41{fill:none;stroke:#F2F2F2;stroke-miterlimit:10;}
	.st42{fill:url(#SVGID_00000025426694466100678260000011684561723900419515_);}
	.st43{fill:url(#SVGID_00000106144929662998764070000012756853442399491258_);}
	.st44{fill:url(#SVGID_00000139279580989478464090000009941470687646312625_);}
	.st45{clip-path:url(#SVGID_00000117651333694184982260000000439374821991647930_);}
	.st46{opacity:0.2;}
	.st47{clip-path:url(#SVGID_00000069379688680429621210000002287789407062967442_);}
	.st48{clip-path:url(#SVGID_00000044874305630982720860000017612583776506826137_);}
	.st49{fill:none;stroke:#999999;stroke-width:0.75;stroke-miterlimit:10;}
	.st50{fill:url(#SVGID_00000173854227131516800870000006554802627126632878_);}
	.st51{fill:url(#SVGID_00000067211730418375524530000004251855759985191327_);}
	.st52{clip-path:url(#SVGID_00000039100594540471539220000001081073624157304223_);}
	.st53{fill:none;stroke:#999999;stroke-width:0.5;stroke-miterlimit:10;}
	.st54{fill:#F4F4F4;stroke:#999999;stroke-width:0.25;stroke-miterlimit:10;}
	.st55{fill:none;stroke:#999999;stroke-width:0.25;stroke-miterlimit:10;}
	.st56{fill:url(#SVGID_00000115503353792901559100000006384958664492236462_);}
	.st57{fill:url(#SVGID_00000101070684014952119370000009552561711858923941_);}
	.st58{fill:url(#SVGID_00000072974349718678331250000005717075779342606004_);}
	.st59{fill:url(#SVGID_00000139280911461450521520000003800812585085456794_);}
	.st60{fill:none;stroke:#000000;stroke-width:2;stroke-miterlimit:10;}
	.st61{fill:url(#SVGID_00000132046549946182162530000001282941123961087884_);}
	.st62{fill:url(#SVGID_00000152943553465985852670000000604882062389703304_);}
	.st63{fill:#F0EFF5;}
	.st64{fill:url(#SVGID_00000109024165205064091070000000355995818349676195_);}
	.st65{fill:url(#SVGID_00000166635089706576920840000016935599921487894202_);}
	.st66{fill:url(#SVGID_00000010997854184500902080000009435573238655393941_);}
	.st67{fill:url(#SVGID_00000034780015500591207560000001541235370154053774_);}
	.st68{fill-rule:evenodd;clip-rule:evenodd;}
	.st69{fill:url(#SVGID_00000098920407246214316790000014235414044710107574_);}
	.st70{fill:url(#SVGID_00000063624623529007826950000014787156326963548349_);}
	.st71{fill:url(#SVGID_00000154414779657781962650000001871697514512789895_);}
	.st72{fill:url(#SVGID_00000109012578381553114730000007629537214676185007_);}
	.st73{fill:url(#SVGID_00000127766104005293109880000015407393551433262211_);}
	.st74{fill:url(#SVGID_00000029739641728646629850000017073451906870305464_);}
	.st75{fill:url(#SVGID_00000153663320315211334640000004085494295342208680_);}
	.st76{fill:url(#SVGID_00000181057455194451574330000014615065884728390314_);}
	.st77{fill:url(#SVGID_00000135652801807667644940000003644517274094891422_);}
	.st78{fill:url(#SVGID_00000027588529375982918930000001843735467542725770_);}
	.st79{fill:url(#SVGID_00000171687953730957613700000012660172100823310225_);}
	.st80{fill:url(#SVGID_00000002385756299768615070000004128638248486283182_);}
	.st81{fill:url(#SVGID_00000027562969280701437830000003166685242611023764_);}
	.st82{fill:url(#SVGID_00000134238859552005251870000015401855590684373951_);}
	.st83{fill:url(#SVGID_00000049902484361886012290000007800987853634702479_);}
	.st84{fill:url(#SVGID_00000097484598995478884070000013466147234050485403_);}
	.st85{fill:url(#SVGID_00000049941420968996186540000004041634401345638074_);}
	.st86{fill:url(#SVGID_00000047021979081345026730000014583678484742182068_);}
	.st87{fill:url(#SVGID_00000034788797654319323100000006041009762341502358_);}
	.st88{fill:url(#SVGID_00000049909362963045638530000001989266770330682755_);}
	.st89{fill:url(#SVGID_00000046299357244812487850000003109468982002729345_);}
	.st90{fill:url(#SVGID_00000098179478600751360830000003066024509364909991_);}
	.st91{fill:url(#SVGID_00000060738622702114794150000017794076292275667865_);}
	.st92{fill:url(#SVGID_00000005945196414027750690000002062233695238179741_);}
	.st93{fill:url(#SVGID_00000032619674599415316520000003468411023228616856_);}
	.st94{fill:#FCC000;}
	.st95{fill:url(#SVGID_00000163778867398162829290000005841001130304961175_);}
	.st96{fill:url(#SVGID_00000166638687386823939560000013956722398863142322_);}
	.st97{fill:url(#SVGID_00000129923830316750137620000014568481594939141803_);}
	.st98{fill:url(#SVGID_00000135654459938833429750000009459062466005271483_);}
	.st99{fill:url(#SVGID_00000144303308770510566530000006492257843940091035_);}
	.st100{fill:url(#SVGID_00000091701105511713569250000006280020410854687410_);}
	.st101{fill:url(#SVGID_00000117648005183158206030000012927001139545917582_);}
	.st102{fill:url(#SVGID_00000155824752806519267420000000374041857030053040_);}
	.st103{fill:url(#SVGID_00000027592403181221074750000014025778901875063965_);}
	.st104{fill:url(#SVGID_00000036232538396416889280000001884739994280058242_);}
	.st105{fill:url(#SVGID_00000165930797136400555770000006277630400741838227_);}
	.st106{fill:url(#SVGID_00000025428916120389523970000018154558014444094886_);}
	.st107{fill:url(#SVGID_00000181805613631860882130000002275015828977930372_);}
	.st108{fill:url(#SVGID_00000057852663966675358380000007281525550751701909_);}
	.st109{fill:url(#SVGID_00000076597725918720599620000012356489150871597978_);}
	.st110{fill:url(#SVGID_00000006703997962780194910000011814389927765329565_);}
	.st111{fill:url(#SVGID_00000067224873683981208790000010952069301788812441_);}
	.st112{fill:url(#SVGID_00000038393782879792615480000008033293519162249403_);}
	.st113{fill:url(#SVGID_00000067947938622160068970000005657097214556305034_);}
	.st114{fill:url(#SVGID_00000013907939539557332770000007203954570846151046_);}
	.st115{fill:url(#SVGID_00000056414505623616873010000012121579962069962413_);}
	.st116{fill:url(#SVGID_00000142163779160243023250000016003368421076950972_);}
	.st117{fill:url(#SVGID_00000008124187520075735960000010014160109355765637_);}
	.st118{fill:url(#SVGID_00000042726607647554556760000001327911637118850978_);}
	.st119{fill:url(#SVGID_00000176019961340381232890000000834845446002215066_);}
</style>
<g>
	<path d="M22.32,2c0.19,0.16,0.38,0.3,0.56,0.47c3.34,3.34,6.68,6.68,10.02,10.01c0.14,0.14,0.29,0.27,0.45,0.4
		c0.87,0.71,1.34,1.62,1.35,2.74c0.02,1.39,0,2.79,0,4.24c0.54,0,1.06,0,1.58,0c1.12,0,1.23,0.12,1.23,1.22c0,2.75,0,5.51,0,8.26
		c0,0.7-0.23,0.92-0.93,0.93c-0.61,0-1.22,0-1.89,0c0,0.13,0,0.26,0,0.38c0,1.22,0,2.44,0,3.66c0,2.19-1.5,3.7-3.68,3.7
		c-8.28,0-16.57,0-24.85,0c-2.16,0-3.67-1.51-3.67-3.67c0-1.96,0-3.91,0-5.87c0-0.07,0-0.14,0-0.21c0.02-0.42,0.33-0.72,0.72-0.71
		c0.38,0.01,0.68,0.3,0.68,0.71c0.01,0.69,0,1.38,0,2.07c0,1.36,0,2.72,0,4.08c0,1.3,0.9,2.2,2.22,2.2c8.32,0,16.64,0,24.96,0
		c1.31,0,2.21-0.9,2.21-2.21c0-1.36,0-2.71,0-4.12c-0.16,0-0.3,0-0.43,0c-3.41,0-6.82,0-10.23,0c-2.94,0-5.26-2.36-5.23-5.29
		c0.03-2.78,2.32-5.09,5.13-5.11c3.43-0.02,6.87-0.01,10.3-0.01c0.14,0,0.28,0,0.44,0c0.01-0.12,0.02-0.23,0.02-0.33
		c0-1.25,0-2.51,0-3.76c0-1.33-0.9-2.23-2.23-2.23c-8.31,0-16.62,0-24.92,0c-1.35,0-2.24,0.9-2.24,2.25c0,1.93,0,10.44,0,12.38
		c0,0.11,0,0.21,0,0.32c-0.03,0.41-0.32,0.69-0.7,0.69c-0.38,0-0.68-0.28-0.7-0.69c-0.02-0.35,0-0.7,0-1.05c0-1.68,0-9.93,0-11.6
		c0-2.17,1.48-3.67,3.64-3.71c0.17,0,0.38-0.11,0.5-0.23c3.16-3.14,6.3-6.29,9.45-9.44c0.16-0.16,0.35-0.3,0.53-0.45
		c0.14,0,0.28,0,0.42,0c0.19,0.17,0.4,0.32,0.58,0.5c0.61,0.61,1.22,1.22,1.88,1.88c0.23-0.25,0.43-0.49,0.65-0.71
		C20.73,3.11,21.32,2.55,21.9,2C22.04,2,22.18,2,22.32,2z M36.08,28.86c0-2.56,0-5.07,0-7.59c-0.16,0-0.28,0-0.41,0
		c-4.26,0-8.53,0-12.79,0c-0.13,0-0.26,0-0.39,0c-2.09,0.08-3.72,1.8-3.68,3.89c0.04,2.06,1.72,3.7,3.82,3.7
		c4.39,0.01,8.79,0,13.18,0C35.89,28.86,35.97,28.86,36.08,28.86z M22.15,3.84c-2.76,2.76-5.54,5.54-8.27,8.27
		c5.46,0,11.01,0,16.53,0C27.64,9.33,24.87,6.55,22.15,3.84z M16.9,3.78c-2.81,2.81-5.58,5.58-8.36,8.36c0.91,0,1.85-0.01,2.8,0.01
		c0.26,0,0.43-0.08,0.61-0.26c2.09-2.1,4.19-4.19,6.28-6.29c0.08-0.08,0.15-0.17,0.24-0.26c-0.52-0.51-1.01-1.01-1.51-1.5
		C16.93,3.79,16.89,3.77,16.9,3.78z"/>
	<path d="M24.71,25.07c0,1.16-0.94,2.1-2.1,2.1c-1.17,0-2.12-0.95-2.12-2.13c0.01-1.15,0.96-2.1,2.12-2.09
		C23.77,22.96,24.71,23.91,24.71,25.07z M23.3,25.06c-0.01-0.37-0.32-0.69-0.69-0.69c-0.38-0.01-0.71,0.33-0.71,0.71
		c0.01,0.39,0.34,0.7,0.73,0.69C23.01,25.75,23.31,25.43,23.3,25.06z"/>
</g>
</svg>
