<?xml version="1.0" encoding="utf-8"?>
<!-- Generator: Adobe Illustrator 26.0.1, SVG Export Plug-In . SVG Version: 6.00 Build 0)  -->
<svg version="1.1" id="Layer_1" xmlns="http://www.w3.org/2000/svg" xmlns:xlink="http://www.w3.org/1999/xlink" x="0px" y="0px"
	 viewBox="0 0 30 30.22" style="enable-background:new 0 0 30 30.22;" xml:space="preserve">
<style type="text/css">
	.st0{fill:#FFFFFF;}
	.st1{fill:#3184B6;}
	.st2{fill:#1F688C;}
	.st3{fill:#145366;}
	.st4{fill:url(#SVGID_1_);}
	.st5{fill:url(#SVGID_00000137838552496646865760000012253272643672579971_);}
	.st6{fill:url(#SVGID_00000114791425596822508540000007074824319556245693_);}
	.st7{fill:none;}
	.st8{fill:#20698E;}
	.st9{fill:#3B91BC;}
	.st10{fill:#333333;}
	.st11{fill:none;stroke:#CCCCCC;stroke-miterlimit:10;}
	.st12{fill:#666666;}
	.st13{opacity:0.7;}
	.st14{clip-path:url(#SVGID_00000042002126934449285650000006311142605066035620_);fill:#FFFFFF;}
	.st15{clip-path:url(#SVGID_00000061467247458913707230000000738766660886099388_);fill:#FFFFFF;}
	.st16{clip-path:url(#SVGID_00000028324055196153932540000004676969409293858221_);fill:#FFFFFF;}
	.st17{clip-path:url(#SVGID_00000170963732940122718140000012857223638903860629_);fill:#FFFFFF;}
	.st18{fill:#F77B0B;}
	.st19{fill:none;stroke:#FFFFFF;stroke-miterlimit:10;}
	.st20{filter:url(#Adobe_OpacityMaskFilter);}
	.st21{enable-background:new    ;}
	.st22{opacity:0.3;mask:url(#SVGID_00000116233227064301746410000011176333292654115480_);}
	.st23{clip-path:url(#SVGID_00000010295321167643819400000002435265286927125134_);}
	.st24{clip-path:url(#SVGID_00000169523513468692227440000000712830551473511578_);}
	.st25{clip-path:url(#SVGID_00000002377159425679559760000005489490916786400405_);fill:#FFFFFF;}
	.st26{clip-path:url(#SVGID_00000137102410651636860620000015858541018073046686_);fill:#FFFFFF;}
	.st27{clip-path:url(#SVGID_00000040539540034928760140000018002788573284696704_);fill:#FFFFFF;}
	.st28{clip-path:url(#SVGID_00000165931782777006084500000006684928548817770626_);fill:#FFFFFF;}
	.st29{filter:url(#Adobe_OpacityMaskFilter_00000086681395660558396000000006257887157953152957_);}
	.st30{opacity:0.3;mask:url(#SVGID_00000158714606353519236090000009990173953686937007_);}
	.st31{clip-path:url(#SVGID_00000106108194724638806640000004580009233948599694_);}
	.st32{clip-path:url(#SVGID_00000034076217701049961290000008823705525897049780_);}
	.st33{fill:none;stroke:#999999;stroke-width:0.5;stroke-miterlimit:10;}
	.st34{fill:none;stroke:#F2F2F2;stroke-miterlimit:10;}
	.st35{fill:url(#SVGID_00000159446126219083982390000012537711334379661710_);}
	.st36{fill:url(#SVGID_00000077301728399002700310000010903260539471340199_);}
	.st37{fill:url(#SVGID_00000119828172227176570110000007362692688005718192_);}
	.st38{clip-path:url(#SVGID_00000140001228733573689630000014321659893030231724_);}
	.st39{clip-path:url(#SVGID_00000081624689415841726480000015664356359152968342_);}
	.st40{opacity:0.2;}
	.st41{clip-path:url(#SVGID_00000005949491755354163200000011592705326175828353_);}
	.st42{clip-path:url(#SVGID_00000102540761516313160610000000766631210323092400_);}
	.st43{fill:none;stroke:#999999;stroke-width:0.75;stroke-miterlimit:10;}
	.st44{fill:url(#SVGID_00000026861023002037197400000009411587135966245006_);}
	.st45{fill:url(#SVGID_00000053509224820663088540000005887183316864385154_);}
	.st46{fill:#3184B6;stroke:#145366;stroke-miterlimit:10;}
	.st47{fill:#55FF3F;}
	.st48{fill:url(#SVGID_00000129918622497552906930000012683855704611877040_);}
	.st49{fill:url(#SVGID_00000088815701574548228440000009930166574074924426_);}
	.st50{fill:url(#SVGID_00000106120526348008020670000006453630222385396131_);}
	.st51{fill:url(#SVGID_00000067929470914472402210000011887130950434789559_);}
	.st52{fill:url(#SVGID_00000029021860733677593140000013422968849859846319_);}
	.st53{fill:url(#SVGID_00000121272849342027265720000011083615863425273732_);}
</style>
<g>
	<path d="M20.98,9.13c0,3.32-2.69,5.99-6.01,5.98c-3.3-0.01-5.96-2.69-5.96-6c0-3.3,2.68-5.98,5.97-5.98
		C18.3,3.12,20.99,5.82,20.98,9.13z M15,4.64c-2.48,0-4.49,2-4.5,4.47c-0.01,2.48,2.03,4.52,4.51,4.51c2.47-0.01,4.48-2.03,4.48-4.5
		C19.49,6.65,17.48,4.64,15,4.64z"/>
	<path d="M15.12,16.61c3.07,0.04,5.78,1.25,8.12,3.34c1.51,1.35,2.74,2.91,3.43,4.84c0.15,0.44,0.23,0.9,0.3,1.36
		c0.07,0.52-0.22,0.89-0.68,0.93c-0.43,0.04-0.72-0.29-0.82-0.78c-0.11-0.56-0.21-1.14-0.47-1.64c-1.69-3.26-4.29-5.46-7.9-6.32
		c-2.95-0.7-5.66,0.03-8.12,1.74c-1.8,1.25-3.24,2.82-4.12,4.86c-0.18,0.42-0.26,0.89-0.34,1.35c-0.08,0.5-0.39,0.82-0.81,0.79
		c-0.45-0.04-0.73-0.41-0.69-0.92c0.09-1.15,0.54-2.17,1.15-3.13c1.81-2.86,4.28-4.88,7.53-5.92
		C12.78,16.77,13.89,16.62,15.12,16.61z"/>
</g>
</svg>
