<?xml version="1.0" encoding="utf-8"?>
<!-- Generator: Adobe Illustrator 26.0.1, SVG Export Plug-In . SVG Version: 6.00 Build 0)  -->
<svg version="1.1" id="Layer_1" xmlns="http://www.w3.org/2000/svg" xmlns:xlink="http://www.w3.org/1999/xlink" x="0px" y="0px"
	 viewBox="0 0 50 43.38" style="enable-background:new 0 0 50 43.38;" xml:space="preserve">
<style type="text/css">
	.st0{fill:#FFFFFF;}
	.st1{fill:#3184B6;}
	.st2{fill:#1F688C;}
	.st3{fill:#145366;}
	.st4{fill:url(#SVGID_1_);}
	.st5{fill:url(#SVGID_00000007408086486842042730000009259193330060439455_);}
	.st6{fill:url(#SVGID_00000106143809453338777640000016639819925412083594_);}
	.st7{fill:none;}
	.st8{fill:#20698E;}
	.st9{fill:#3B91BC;}
	.st10{fill:#333333;}
	.st11{fill:none;stroke:#CCCCCC;stroke-miterlimit:10;}
	.st12{fill:#666666;}
	.st13{opacity:0.7;}
	.st14{clip-path:url(#SVGID_00000107576487918644112810000005703690801119395983_);fill:#FFFFFF;}
	.st15{clip-path:url(#SVGID_00000109000670006445670550000016900988012364916921_);fill:#FFFFFF;}
	.st16{clip-path:url(#SVGID_00000050652172435344827150000016336653578718806176_);fill:#FFFFFF;}
	.st17{clip-path:url(#SVGID_00000094601907863528226960000011352330965391710871_);fill:#FFFFFF;}
	.st18{fill:#F77B0B;}
	.st19{fill:none;stroke:#FFFFFF;stroke-miterlimit:10;}
	.st20{filter:url(#Adobe_OpacityMaskFilter);}
	.st21{enable-background:new    ;}
	.st22{opacity:0.3;mask:url(#SVGID_00000096037052526132635560000003877354939080419493_);}
	.st23{clip-path:url(#SVGID_00000008843191173024762280000002453878584616844444_);}
	.st24{clip-path:url(#SVGID_00000057841227798620660160000006774259657191542663_);}
	.st25{fill:none;stroke:#999999;stroke-width:0.5;stroke-miterlimit:10;}
	.st26{fill:none;stroke:#F2F2F2;stroke-miterlimit:10;}
	.st27{fill:url(#SVGID_00000021081923865464300270000011804197398306581649_);}
	.st28{fill:url(#SVGID_00000044170916997171557230000007333433895487931539_);}
	.st29{fill:url(#SVGID_00000059275332527298667980000011728164199655461266_);}
	.st30{clip-path:url(#SVGID_00000026163346614139876200000014659096118039746955_);}
	.st31{clip-path:url(#SVGID_00000027573104188882054910000015662704563690650787_);}
	.st32{opacity:0.2;}
	.st33{clip-path:url(#SVGID_00000053546877447328302130000000904264741888624792_);}
	.st34{clip-path:url(#SVGID_00000052079876632334787380000008085315563991919000_);}
	.st35{fill:none;stroke:#999999;stroke-width:0.75;stroke-miterlimit:10;}
	.st36{fill:url(#SVGID_00000164494283051215816350000012664724492982043800_);}
	.st37{fill:url(#SVGID_00000011745528754972667290000003589718744852793238_);}
	.st38{fill:#3184B6;stroke:#145366;stroke-miterlimit:10;}
	.st39{fill:#55FF3F;}
	.st40{fill:url(#SVGID_00000157999297841524247850000002268993643376977585_);}
	.st41{fill:url(#SVGID_00000181079886877965467570000008477497870315845042_);}
	.st42{fill:url(#SVGID_00000087385521805809094480000007325181321481245072_);}
	.st43{fill:url(#SVGID_00000049927825467443352740000001547453642015199154_);}
	.st44{fill:url(#SVGID_00000172410044612403622780000006967750321018341516_);}
	.st45{fill:url(#SVGID_00000024723302083709417260000015368821756332431540_);}
</style>
<g>
	<g>
		<path d="M46,38.59c-0.05,0.09-0.1,0.18-0.15,0.28c-0.31,0.65-0.82,1-1.54,1.04c-0.12,0.01-0.25,0-0.37,0c-12.97,0-25.94,0-38.91,0
			C4.15,39.91,4,39.76,4,38.89c0-8.79,0-17.58,0-26.37c0-1.21,0.52-1.73,1.71-1.73c4.58,0,9.16,0,13.74,0
			c1.13,0,1.68,0.55,1.68,1.69c0,1.49,0,2.98,0,4.57c1.16-0.76,2.31-1.18,3.59-0.18c0-0.29,0-0.45,0-0.61c0-3.62,0-7.25,0-10.87
			c0-0.26,0.01-0.53,0.07-0.77c0.18-0.69,0.81-1.15,1.56-1.15c6,0,12,0,18,0c0.86,0,1.33,0.51,1.65,1.24C46,16,46,27.3,46,38.59z
			 M36.52,23.16c0.28-0.66,0.52-0.83,1.19-0.83c0.97,0,1.94-0.01,2.91,0c0.78,0,1.16,0.38,1.16,1.16c0.01,0.97,0.01,1.94,0,2.91
			c-0.01,0.8-0.39,1.17-1.19,1.18c-0.89,0.01-1.78-0.02-2.67,0.01c-0.61,0.02-1.12-0.1-1.36-0.72c-1.02,0.45-1.08,0.46-2.43,0.12
			c0,1.15,0,2.3,0,3.49c0.18,0,0.33,0,0.47,0c1.33,0,2.65,0,3.98,0c1.06,0,1.59,0.53,1.59,1.58c0,2.02,0,4.05,0,6.07
			c0,0.15,0,0.29,0,0.46c0.17,0.01,0.3,0.02,0.44,0.02c1.12,0,2.24,0,3.36,0c0.62,0,0.71-0.08,0.71-0.71c0-10.83,0-21.65,0-32.48
			c0-0.6-0.02-0.62-0.62-0.62c-5.81,0-11.62,0-17.43,0c-0.57,0-0.61,0.04-0.61,0.6c0,2.47,0,4.95,0,7.42c0,1.45,0,2.9,0.01,4.35
			c0,0.15,0.04,0.37,0.14,0.43c0.9,0.51,1.81,0.99,2.72,1.47c0.03-0.05,0.04-0.06,0.04-0.07c0-1.11,0-2.21,0.01-3.32
			c0-0.67,0.39-1.09,1.06-1.1c1.04-0.01,2.08-0.01,3.12,0c0.67,0.01,1.07,0.42,1.07,1.09c0.01,1.03,0.01,2.05,0,3.08
			c-0.01,0.69-0.41,1.08-1.11,1.09c-0.77,0.01-1.53,0-2.3,0c-0.09,0-0.19,0.02-0.39,0.04C32.49,20.99,34.5,22.07,36.52,23.16z
			 M26.98,38.6c1.77,0,3.47,0,5.18,0c0.64,0,0.64,0,0.64-0.62c0-3.77-0.01-7.54,0.01-11.32c0-0.35-0.1-0.53-0.41-0.69
			c-2.99-1.59-5.97-3.19-8.95-4.8c-0.23-0.13-0.4-0.13-0.63,0c-3.03,1.63-6.06,3.26-9.09,4.88c-0.21,0.11-0.28,0.24-0.28,0.48
			c0.01,3.87,0.01,7.74,0,11.6c0,0.39,0.15,0.49,0.51,0.48c1.65-0.01,3.31-0.01,4.96-0.01c0.11,0,0.21,0,0.35,0
			c0-0.19,0-0.34,0-0.48c0-1.9,0-3.8,0-5.7c0-0.61,0.23-0.85,0.84-0.85c2.01,0,4.02,0,6.03,0c0.64,0,0.85,0.22,0.85,0.88
			c0,1.89,0,3.77,0,5.66C26.98,38.25,26.98,38.4,26.98,38.6z M17.95,18.74c0.55-0.29,1.03-0.57,1.53-0.81
			c0.25-0.12,0.35-0.27,0.35-0.56c-0.02-1.6-0.02-3.2,0-4.8c0.01-0.39-0.12-0.48-0.49-0.47c-4.51,0.01-9.02,0.01-13.53,0
			c-0.39,0-0.5,0.1-0.5,0.5c0.01,8.52,0.01,17.03,0.01,25.55c0,0.14,0,0.29,0,0.43c2.3,0,4.55,0,6.79,0c0-3.89,0-7.74,0-11.61
			c-0.81,0.28-1.22,0.32-1.7,0.19c-0.86-0.23-1.51-0.96-1.63-1.82c-0.13-0.92,0.29-1.79,1.11-2.25c1.01-0.57,2.04-1.12,3.07-1.64
			c0.29-0.15,0.37-0.33,0.37-0.64c-0.02-1.19-0.01-2.38,0-3.57c0.01-0.94,0.52-1.45,1.44-1.45c0.59,0,1.18,0,1.76,0
			c0.93,0.01,1.43,0.52,1.44,1.46C17.95,17.71,17.95,18.19,17.95,18.74z M10.06,25.12c0.03,0.08,0.08,0.25,0.17,0.4
			c0.28,0.43,0.77,0.5,1.35,0.19c3.66-1.96,7.32-3.92,10.97-5.89c0.4-0.22,0.74-0.22,1.15,0c2.33,1.27,4.66,2.51,7,3.77
			c1.36,0.73,2.71,1.47,4.08,2.19c0.61,0.32,1.27,0.04,1.39-0.57c0.09-0.47-0.1-0.8-0.62-1.08c-3.93-2.11-7.87-4.22-11.8-6.34
			c-0.43-0.23-0.8-0.23-1.23,0c-2.13,1.16-4.28,2.3-6.42,3.45c-1.8,0.97-3.61,1.94-5.41,2.91C10.3,24.33,10.07,24.59,10.06,25.12z
			 M34.13,31.79c0,2.29,0,4.53,0,6.78c1.59,0,3.15,0,4.71,0c0-2.27,0-4.52,0-6.78C37.26,31.79,35.71,31.79,34.13,31.79z
			 M25.63,38.58c0-1.92,0-3.8,0-5.67c-1.7,0-3.37,0-5.03,0c0,1.91,0,3.79,0,5.67C22.29,38.58,23.95,38.58,25.63,38.58z M32.84,18.49
			c0-0.9,0-1.75,0-2.59c-0.87,0-1.71,0-2.57,0c0,0.87,0,1.72,0,2.59C31.14,18.49,31.98,18.49,32.84,18.49z M37.87,26.23
			c0.89,0,1.73,0,2.58,0c0-0.87,0-1.71,0-2.56c-0.88,0-1.73,0-2.58,0C37.87,24.54,37.87,25.37,37.87,26.23z M14.63,20.52
			c0.68-0.36,1.28-0.69,1.89-1.02c0.06-0.03,0.11-0.13,0.11-0.19c0.01-0.73,0.01-1.46,0.01-2.18c-0.7,0-1.35,0-2.01,0
			C14.63,18.25,14.63,19.33,14.63,20.52z"/>
		<path d="M28.93,9.44c0-0.52-0.01-1.04,0-1.56c0.01-0.65,0.4-1.04,1.05-1.05c1.05-0.01,2.1-0.01,3.16,0
			c0.62,0.01,1.03,0.4,1.04,1.03c0.02,1.05,0.01,2.1,0,3.16c-0.01,0.63-0.4,1.04-1.02,1.05c-1.08,0.02-2.16,0.02-3.24,0
			c-0.6-0.01-0.97-0.43-0.99-1.03c0-0.03,0-0.05,0-0.08C28.93,10.45,28.93,9.94,28.93,9.44z M32.85,8.17c-0.87,0-1.72,0-2.57,0
			c0,0.88,0,1.73,0,2.57c0.88,0,1.72,0,2.57,0C32.85,9.87,32.85,9.03,32.85,8.17z"/>
		<path d="M36.54,9.4c0-0.52-0.01-1.04,0-1.56c0.02-0.63,0.4-1.01,1.04-1.02c1.05-0.01,2.1-0.01,3.15,0
			c0.62,0.01,1.02,0.36,1.04,0.98c0.03,1.09,0.03,2.19,0,3.28c-0.02,0.6-0.43,0.98-1.04,0.99c-1.05,0.02-2.1,0.02-3.15,0
			c-0.65-0.01-1.03-0.41-1.04-1.07C36.53,10.47,36.54,9.94,36.54,9.4C36.54,9.4,36.54,9.4,36.54,9.4z M37.87,10.74
			c0.88,0,1.72,0,2.58,0c0-0.87,0-1.72,0-2.57c-0.88,0-1.73,0-2.58,0C37.87,9.04,37.87,9.87,37.87,10.74z"/>
		<path d="M39.15,19.81c-0.51,0-1.01,0.01-1.52,0c-0.69-0.01-1.08-0.38-1.09-1.05c-0.01-1.05-0.01-2.1,0-3.16
			c0.01-0.63,0.4-1.03,1.03-1.04c1.05-0.02,2.1-0.02,3.15,0c0.63,0.01,1.04,0.39,1.05,1.02c0.02,1.06,0.02,2.13,0,3.2
			c-0.01,0.66-0.42,1.02-1.08,1.03C40.19,19.82,39.67,19.81,39.15,19.81z M40.46,15.9c-0.89,0-1.73,0-2.57,0c0,0.88,0,1.73,0,2.58
			c0.87,0,1.71,0,2.57,0C40.46,17.61,40.46,16.77,40.46,15.9z"/>
	</g>
</g>
</svg>
