<?xml version="1.0" encoding="utf-8"?>
<!-- Generator: Adobe Illustrator 26.0.1, SVG Export Plug-In . SVG Version: 6.00 Build 0)  -->
<svg version="1.1" id="Layer_1" xmlns="http://www.w3.org/2000/svg" xmlns:xlink="http://www.w3.org/1999/xlink" x="0px" y="0px"
	 viewBox="0 0 50 43.38" style="enable-background:new 0 0 50 43.38;" xml:space="preserve">
<style type="text/css">
	.st0{fill:#FFFFFF;}
	.st1{fill:#3184B6;}
	.st2{fill:#1F688C;}
	.st3{fill:#145366;}
	.st4{fill:url(#SVGID_1_);}
	.st5{fill:url(#SVGID_00000176008545282509669050000014212487898890347688_);}
	.st6{fill:url(#SVGID_00000063595766781991259650000003383130039882350210_);}
	.st7{fill:none;}
	.st8{fill:#20698E;}
	.st9{fill:#3B91BC;}
	.st10{fill:#333333;}
	.st11{fill:none;stroke:#CCCCCC;stroke-miterlimit:10;}
	.st12{fill:#666666;}
	.st13{opacity:0.7;}
	.st14{clip-path:url(#SVGID_00000073710105059655799940000013772818985455678600_);fill:#FFFFFF;}
	.st15{clip-path:url(#SVGID_00000161594782283439625660000001658398522891255209_);fill:#FFFFFF;}
	.st16{clip-path:url(#SVGID_00000144302235785945575810000001762610567625818559_);fill:#FFFFFF;}
	.st17{clip-path:url(#SVGID_00000103981744543506114800000006481979474912173455_);fill:#FFFFFF;}
	.st18{fill:#F77B0B;}
	.st19{fill:none;stroke:#FFFFFF;stroke-miterlimit:10;}
	.st20{filter:url(#Adobe_OpacityMaskFilter);}
	.st21{enable-background:new    ;}
	.st22{opacity:0.3;mask:url(#SVGID_00000121249752915316728970000011832731900754249378_);}
	.st23{clip-path:url(#SVGID_00000045584298961848334040000000804417207034709165_);}
	.st24{clip-path:url(#SVGID_00000112617408084182730380000017282285754381471628_);}
	.st25{fill:none;stroke:#999999;stroke-width:0.5;stroke-miterlimit:10;}
	.st26{fill:none;stroke:#F2F2F2;stroke-miterlimit:10;}
	.st27{fill:url(#SVGID_00000145021001016603461170000009043242134152167839_);}
	.st28{fill:url(#SVGID_00000000936271585944026520000017280201815260058016_);}
	.st29{fill:url(#SVGID_00000123423783030783834290000012030858126209945511_);}
	.st30{clip-path:url(#SVGID_00000102541644407762804430000015240793955918985143_);}
	.st31{clip-path:url(#SVGID_00000173147337836613688120000008459728107160797373_);}
	.st32{opacity:0.2;}
	.st33{clip-path:url(#SVGID_00000083779591451178533490000003804685977010176687_);}
	.st34{clip-path:url(#SVGID_00000039094459456508267000000008771682831051977344_);}
	.st35{fill:none;stroke:#999999;stroke-width:0.75;stroke-miterlimit:10;}
	.st36{fill:url(#SVGID_00000010284774738194443870000000088059945286972291_);}
	.st37{fill:url(#SVGID_00000007406157612340694220000006637913942688568231_);}
	.st38{fill:#3184B6;stroke:#145366;stroke-miterlimit:10;}
	.st39{fill:#55FF3F;}
	.st40{fill:url(#SVGID_00000067215616185000643120000011022936086558059948_);}
	.st41{fill:url(#SVGID_00000027570729283347331140000009764924468144354471_);}
	.st42{fill:url(#SVGID_00000137839669053641286280000008170698659620771253_);}
	.st43{fill:url(#SVGID_00000139999514710249364800000014148039167513524360_);}
	.st44{fill:url(#SVGID_00000155123941328611045630000000266898990974737335_);}
	.st45{fill:url(#SVGID_00000031207462838965137440000002691107010294144399_);}
</style>
<g>
	<path d="M24.9,42.69c-0.86,0-1.71,0.01-2.57,0c-1.15-0.01-1.78-0.58-1.94-1.72c-0.19-1.31-0.39-2.61-0.57-3.92
		c-0.04-0.29-0.15-0.49-0.46-0.57c-0.1-0.03-0.22-0.06-0.3-0.12c-0.79-0.59-1.44-0.33-2.13,0.25c-0.81,0.68-1.7,1.26-2.56,1.87
		c-0.89,0.63-1.71,0.57-2.47-0.2c-1.21-1.21-2.42-2.42-3.63-3.63c-0.79-0.8-0.85-1.64-0.18-2.55c0.82-1.11,1.64-2.23,2.48-3.33
		c0.18-0.24,0.24-0.46,0.08-0.72c-0.04-0.07-0.08-0.14-0.09-0.21c-0.14-0.95-0.78-1.18-1.63-1.27c-1.14-0.12-2.27-0.35-3.41-0.54
		c-0.92-0.16-1.48-0.75-1.49-1.69c-0.03-1.85-0.03-3.7,0-5.56c0.01-0.89,0.6-1.51,1.49-1.65c1.41-0.22,2.83-0.44,4.24-0.63
		c0.35-0.05,0.5-0.2,0.69-0.5c0.53-0.85,0.36-1.5-0.26-2.23c-0.71-0.84-1.31-1.78-1.95-2.67c-0.65-0.91-0.59-1.71,0.21-2.51
		c1.21-1.21,2.42-2.42,3.63-3.63c0.78-0.77,1.62-0.83,2.51-0.18c1.12,0.82,2.23,1.64,3.33,2.48c0.26,0.2,0.47,0.17,0.77,0.1
		c1.03-0.24,1.42-0.87,1.48-1.9c0.07-1.1,0.33-2.18,0.52-3.27c0.15-0.89,0.82-1.46,1.72-1.47c1.81-0.01,3.61-0.01,5.42,0
		c0.93,0,1.6,0.57,1.75,1.49c0.23,1.4,0.41,2.8,0.65,4.19c0.03,0.2,0.25,0.38,0.41,0.53C30.74,7,30.93,7,31.06,7.08
		c0.68,0.47,1.24,0.32,1.86-0.2c0.86-0.71,1.8-1.33,2.71-1.98c0.87-0.62,1.71-0.55,2.47,0.21c1.21,1.21,2.42,2.42,3.63,3.63
		c0.79,0.79,0.84,1.64,0.17,2.55c-0.76,1.03-1.51,2.06-2.29,3.07c-0.22,0.29-0.26,0.54-0.08,0.84c0.08,0.13,0.16,0.28,0.19,0.43
		c0.16,0.85,0.69,1.15,1.52,1.22c1.05,0.09,2.09,0.31,3.13,0.48c1.02,0.16,1.6,0.82,1.6,1.85c0,1.76,0.01,3.52,0,5.28
		c0,1.01-0.62,1.69-1.63,1.83c-1.29,0.19-2.59,0.37-3.87,0.58c-0.18,0.03-0.37,0.23-0.49,0.39c-0.12,0.17-0.14,0.42-0.26,0.59
		c-0.51,0.74-0.31,1.33,0.24,1.98c0.65,0.77,1.2,1.63,1.79,2.45c0.65,0.9,0.59,1.73-0.18,2.51c-1.21,1.21-2.42,2.42-3.63,3.63
		c-0.8,0.79-1.63,0.85-2.55,0.17c-1.04-0.77-2.08-1.53-3.11-2.31c-0.24-0.18-0.45-0.22-0.72-0.08c-0.32,0.16-0.65,0.31-0.99,0.4
		c-0.43,0.11-0.58,0.37-0.64,0.78c-0.17,1.23-0.38,2.46-0.58,3.69c-0.16,1.02-0.81,1.59-1.85,1.61c-0.03,0-0.06,0-0.09,0
		C26.58,42.69,25.74,42.69,24.9,42.69z M24.88,41.24c0.79,0,1.59-0.03,2.38,0.01c0.48,0.02,0.65-0.15,0.72-0.61
		c0.18-1.29,0.41-2.58,0.62-3.87c0.11-0.7,0.52-1.14,1.16-1.4c0.45-0.17,0.9-0.34,1.34-0.53c0.71-0.31,1.35-0.23,1.97,0.23
		c1.03,0.78,2.08,1.53,3.11,2.32c0.32,0.25,0.54,0.25,0.83-0.05c1.14-1.17,2.3-2.33,3.47-3.47c0.29-0.29,0.32-0.5,0.07-0.83
		c-0.78-1.03-1.52-2.09-2.28-3.14c-0.42-0.58-0.48-1.19-0.2-1.85c0.22-0.5,0.43-1,0.64-1.5c0.26-0.63,0.73-1,1.4-1.1
		c1.29-0.2,2.58-0.4,3.88-0.56c0.43-0.05,0.58-0.22,0.58-0.65c-0.02-1.62-0.02-3.24,0-4.86c0.01-0.43-0.14-0.6-0.57-0.66
		c-1.31-0.19-2.61-0.41-3.91-0.63c-0.67-0.11-1.12-0.51-1.37-1.13c-0.18-0.45-0.36-0.9-0.55-1.33c-0.33-0.72-0.25-1.38,0.23-2.01
		c0.78-1.03,1.53-2.08,2.32-3.11c0.24-0.32,0.26-0.53-0.05-0.83c-1.18-1.15-2.35-2.32-3.5-3.5c-0.28-0.29-0.49-0.27-0.79-0.05
		c-1.09,0.81-2.19,1.59-3.29,2.38c-0.58,0.42-1.19,0.49-1.85,0.2c-0.41-0.18-0.83-0.35-1.25-0.51c-0.68-0.27-1.08-0.75-1.19-1.48
		c-0.2-1.37-0.42-2.74-0.61-4.11c-0.05-0.38-0.22-0.49-0.58-0.49c-1.67,0.01-3.33,0.01-5,0c-0.34,0-0.5,0.1-0.55,0.46
		c-0.21,1.41-0.46,2.82-0.69,4.24c-0.11,0.69-0.5,1.16-1.14,1.42c-0.35,0.14-0.7,0.26-1.03,0.43c-0.75,0.37-1.43,0.27-2.09-0.24
		C16,7.6,14.87,6.79,13.77,5.96c-0.29-0.22-0.49-0.21-0.75,0.05c-1.15,1.18-2.32,2.35-3.5,3.5c-0.3,0.29-0.31,0.5-0.06,0.83
		c0.84,1.12,1.64,2.27,2.47,3.4c0.43,0.59,0.51,1.22,0.22,1.89c-0.15,0.36-0.3,0.71-0.45,1.07c-0.28,0.7-0.8,1.07-1.55,1.18
		c-1.42,0.2-2.83,0.43-4.25,0.63c-0.36,0.05-0.46,0.21-0.46,0.55c0.01,1.67,0.01,3.33,0,5c0,0.36,0.11,0.52,0.48,0.58
		c1.41,0.21,2.82,0.46,4.24,0.69c0.69,0.11,1.15,0.5,1.41,1.15c0.14,0.36,0.27,0.73,0.43,1.08c0.32,0.72,0.23,1.38-0.24,2.01
		c-0.83,1.09-1.62,2.21-2.46,3.29c-0.27,0.35-0.23,0.57,0.08,0.86c1.16,1.13,2.3,2.28,3.43,3.43c0.28,0.29,0.5,0.32,0.83,0.07
		c1.08-0.81,2.19-1.59,3.29-2.38c0.6-0.43,1.22-0.49,1.89-0.19c0.38,0.17,0.76,0.35,1.16,0.5c0.77,0.29,1.15,0.84,1.26,1.64
		c0.18,1.32,0.39,2.65,0.57,3.97c0.05,0.34,0.19,0.48,0.55,0.47C23.2,41.23,24.04,41.24,24.88,41.24z"/>
	<path d="M13.01,21.69c0-6.62,5.38-12.01,11.99-12.01c6.6,0,12,5.4,12.01,12c0.01,6.61-5.38,11.99-12.01,11.99
		C18.38,33.68,13.01,28.32,13.01,21.69z M28.23,31.68c4.08-0.61,7.64-5.93,7.3-10.87c-0.37-5.33-4.97-9.59-10.41-9.67
		c-5.43-0.08-10.32,4.14-10.65,9.95c-0.33,5.69,3.77,9.65,7.31,10.59c0.01-0.14,0.02-0.27,0.02-0.41c0-1.42-0.01-2.83,0.01-4.25
		c0-0.3-0.09-0.47-0.34-0.64c-3.66-2.49-3.62-7.91,0.07-10.36c0.3-0.2,0.6-0.35,0.95-0.16c0.34,0.18,0.37,0.5,0.37,0.84
		c-0.01,1.11-0.01,2.21,0,3.32c0,0.14,0.04,0.36,0.13,0.4c1.05,0.48,2.06,1.34,3.27,0.36c0.13-0.1,0.3-0.16,0.47-0.21
		c0.31-0.1,0.42-0.28,0.41-0.62c-0.03-1.07,0-2.15-0.01-3.22c0-0.36,0.05-0.69,0.4-0.88c0.35-0.19,0.65-0.03,0.95,0.17
		c3.56,2.35,3.73,7.62,0.31,10.17c-0.45,0.33-0.58,0.66-0.57,1.18C28.25,28.81,28.23,30.24,28.23,31.68z M28.59,18.04
		c0,0.27,0,0.42,0,0.57c0,0.68-0.01,1.37,0,2.05c0.01,0.44-0.16,0.73-0.58,0.91c-0.85,0.37-1.69,0.8-2.55,1.14
		c-0.27,0.11-0.65,0.1-0.92,0c-0.65-0.24-1.28-0.56-1.91-0.85c-1.31-0.61-1.2-0.43-1.2-1.9c0-0.61,0-1.22,0-1.83
		c-0.19,0.11-0.29,0.22-0.38,0.35c-1.62,2.31-0.9,5.51,1.59,6.94c0.42,0.24,0.59,0.53,0.59,1c-0.02,1.71-0.01,3.42-0.01,5.13
		c0,0.17,0,0.33,0,0.6c1.2,0,2.36,0,3.55,0c0-0.26,0-0.43,0-0.6c0-1.66,0.02-3.33-0.01-4.99c-0.01-0.57,0.19-0.91,0.69-1.19
		C30.02,23.88,30.62,20.34,28.59,18.04z"/>
</g>
</svg>
