<?xml version="1.0" encoding="utf-8"?>
<!-- Generator: Adobe Illustrator 26.0.1, SVG Export Plug-In . SVG Version: 6.00 Build 0)  -->
<svg version="1.1" id="Layer_1" xmlns="http://www.w3.org/2000/svg" xmlns:xlink="http://www.w3.org/1999/xlink" x="0px" y="0px"
	 viewBox="0 0 50 43.38" style="enable-background:new 0 0 50 43.38;" xml:space="preserve">
<style type="text/css">
	.st0{fill:#FFFFFF;}
	.st1{fill:#3184B6;}
	.st2{fill:#1F688C;}
	.st3{fill:#145366;}
	.st4{fill:url(#SVGID_1_);}
	.st5{fill:url(#SVGID_00000122696750304757067580000003652204725409033601_);}
	.st6{fill:url(#SVGID_00000161633656047956546900000014073890844355724692_);}
	.st7{fill:none;}
	.st8{fill:#20698E;}
	.st9{fill:#3B91BC;}
	.st10{fill:#333333;}
	.st11{fill:none;stroke:#CCCCCC;stroke-miterlimit:10;}
	.st12{fill:#666666;}
	.st13{opacity:0.7;}
	.st14{clip-path:url(#SVGID_00000160881189953192708750000014011353049519181742_);fill:#FFFFFF;}
	.st15{clip-path:url(#SVGID_00000102537943666902499840000000585125455318802325_);fill:#FFFFFF;}
	.st16{clip-path:url(#SVGID_00000058591622009335366010000013675517119231220655_);fill:#FFFFFF;}
	.st17{clip-path:url(#SVGID_00000132802473308544266090000004319861022840623774_);fill:#FFFFFF;}
	.st18{fill:#F77B0B;}
	.st19{fill:none;stroke:#FFFFFF;stroke-miterlimit:10;}
	.st20{filter:url(#Adobe_OpacityMaskFilter);}
	.st21{enable-background:new    ;}
	.st22{opacity:0.3;mask:url(#SVGID_00000079486548249282485830000015144698623929799859_);}
	.st23{clip-path:url(#SVGID_00000124134331065376015630000001563295843232974494_);}
	.st24{clip-path:url(#SVGID_00000007417580310436468320000014337402133769761678_);}
	.st25{fill:none;stroke:#999999;stroke-width:0.5;stroke-miterlimit:10;}
	.st26{fill:none;stroke:#F2F2F2;stroke-miterlimit:10;}
	.st27{fill:url(#SVGID_00000039837700168741181570000009634446758347233925_);}
	.st28{fill:url(#SVGID_00000036240203307381831800000000004642308463267746_);}
	.st29{fill:url(#SVGID_00000012455709795862393460000006959555997250234550_);}
	.st30{clip-path:url(#SVGID_00000069382710954128280170000000991000252300166031_);}
	.st31{clip-path:url(#SVGID_00000101079346550401265610000011108009537465061539_);}
	.st32{opacity:0.2;}
	.st33{clip-path:url(#SVGID_00000119839841463707568740000013300945077239026840_);}
	.st34{clip-path:url(#SVGID_00000109718321040371483440000005241524586747221176_);}
	.st35{fill:none;stroke:#999999;stroke-width:0.75;stroke-miterlimit:10;}
	.st36{fill:url(#SVGID_00000173123731275826544450000010814359598012830385_);}
	.st37{fill:url(#SVGID_00000151502219368472417320000007759574939000914617_);}
	.st38{fill:#3184B6;stroke:#145366;stroke-miterlimit:10;}
	.st39{fill:#55FF3F;}
	.st40{fill:url(#SVGID_00000130636113610543254870000002885737717229089968_);}
	.st41{fill:url(#SVGID_00000072960642066098458570000001090754156559058856_);}
	.st42{fill:url(#SVGID_00000142884866234074190830000011986799898912877503_);}
	.st43{fill:url(#SVGID_00000116933590760463418480000014660505580717296262_);}
	.st44{fill:url(#SVGID_00000059992024476309832440000006096511961940601482_);}
	.st45{fill:url(#SVGID_00000097497310793132847340000017226975544947902371_);}
</style>
<g>
	<path d="M4,22.43c0.13-0.47,0.24-0.95,0.4-1.41c0.44-1.19,1.12-2.21,2.14-2.99c0.73-0.56,1.45-1.16,2.24-1.79
		c-0.77-0.16-1.45-0.3-2.14-0.44c-0.51-0.11-0.67-0.3-0.68-0.81c0-0.57-0.01-1.15,0-1.72c0.01-0.51,0.25-0.75,0.76-0.76
		c1.03-0.01,2.05-0.01,3.08,0c0.51,0,0.75,0.25,0.76,0.76c0.01,0.29,0.01,0.57,0.01,0.86c0,0.01,0.02,0.02,0.09,0.09
		c0.32-0.53,0.67-1.03,0.94-1.57c0.41-0.82,0.75-1.67,1.16-2.49c0.92-1.86,2.43-2.88,4.5-2.89c5.15-0.04,10.31-0.04,15.46,0
		c2.07,0.01,3.58,1.03,4.5,2.88c0.56,1.11,1.08,2.23,1.64,3.34c0.12,0.25,0.32,0.46,0.57,0.66c0-0.31-0.01-0.62,0-0.92
		c0.01-0.46,0.25-0.72,0.71-0.72c1.05-0.01,2.11-0.01,3.16,0c0.46,0,0.71,0.25,0.72,0.71c0.01,0.61,0,1.23,0,1.85
		c0,0.4-0.2,0.64-0.59,0.72c-0.71,0.15-1.42,0.29-2.19,0.44c0.11,0.11,0.19,0.19,0.28,0.26c0.66,0.53,1.33,1.05,1.98,1.59
		c1.61,1.33,2.46,3.05,2.48,5.14c0.02,3.57,0.01,7.14,0.01,10.7c0,1.42-0.79,2.2-2.21,2.21c-1.61,0-3.23,0-4.84,0
		c-1.33,0-2.13-0.81-2.14-2.15c0-0.35,0-0.71,0-1.1c-7.87,0-15.72,0-23.62,0c0,0.39,0,0.78,0,1.17c-0.01,1.25-0.83,2.08-2.09,2.08
		c-1.53,0-3.06-0.04-4.59,0.01C5.28,36.18,4.42,35.76,4,34.57C4,30.52,4,26.48,4,22.43z M5.31,26.3c0,1.08,0,2.12,0,3.16
		c0.01,1.25,0.84,2.07,2.09,2.07c1.39,0,2.79,0.01,4.18-0.01c0.19,0,0.42-0.1,0.56-0.23c0.4-0.35,0.76-0.75,1.14-1.12
		c0.85-0.84,1.86-1.26,3.06-1.26c5.66,0,11.32,0,16.98,0c1.19,0,2.21,0.42,3.06,1.26c0.39,0.39,0.76,0.78,1.17,1.15
		c0.12,0.11,0.3,0.2,0.45,0.2c1.57,0.01,3.14,0.02,4.72,0.01c0.97-0.01,1.84-0.67,1.92-1.63c0.09-1.19,0.02-2.39,0.02-3.62
		c-0.11,0-0.2,0-0.3,0c-0.1,0.01-0.21,0.02-0.33,0.03c0,0.22,0,0.41,0,0.6c-0.02,1.35-0.92,2.45-2.25,2.61
		c-0.8,0.1-1.61,0.05-2.42,0.03c-0.35-0.01-0.56-0.27-0.58-0.63c-0.02-0.34,0.24-0.62,0.6-0.66c0.11-0.01,0.22-0.01,0.33-0.01
		c0.45,0,0.91-0.03,1.35,0.01c1.13,0.1,1.87-0.69,1.59-1.98c-0.24,0-0.48,0.01-0.72,0c-0.89-0.05-1.67,0.18-2.35,0.76
		c-0.3,0.25-0.68,0.2-0.92-0.07c-0.23-0.27-0.22-0.66,0.07-0.92c0.77-0.69,1.68-1.07,2.72-1.08c1.06-0.02,2.12,0,3.16,0
		c0-0.9,0-1.76,0-2.72c-0.71,0.67-1.49,0.77-2.32,0.76c-1.37-0.02-2.73-0.04-4.1,0.01c-0.71,0.03-1.28-0.12-1.71-0.71
		c-0.08-0.12-0.21-0.2-0.41-0.39c-0.15,0.19-0.28,0.36-0.41,0.54c-0.33,0.44-0.76,0.57-1.32,0.57c-2.19-0.03-4.37,0-6.56-0.02
		c-0.38,0-0.67,0.08-0.93,0.37c-0.41,0.46-0.86,0.88-1.3,1.31c-0.41,0.4-0.72,0.4-1.13,0c-0.47-0.46-0.94-0.92-1.39-1.4
		c-0.19-0.2-0.39-0.29-0.68-0.28c-2.34,0.01-4.67,0.02-7.01-0.01c-0.27,0-0.56-0.16-0.79-0.32c-0.26-0.19-0.46-0.46-0.72-0.73
		c-0.22,0.23-0.41,0.41-0.57,0.61c-0.29,0.36-0.65,0.48-1.11,0.47c-1.48-0.03-2.95-0.02-4.43,0c-0.84,0.01-1.64-0.07-2.36-0.76
		c0,0.96,0,1.82,0,2.73c0.11,0,0.24,0,0.38,0c0.94,0,1.89-0.01,2.83,0c0.98,0.02,1.84,0.37,2.59,1c0.37,0.31,0.42,0.7,0.16,1
		c-0.26,0.3-0.64,0.31-1.01-0.01c-0.89-0.76-1.94-0.74-3.03-0.65c0,0.17,0,0.3,0,0.44c0,0.98,0.51,1.5,1.49,1.5
		c0.56,0,1.12,0,1.68,0c0.48,0,0.77,0.27,0.77,0.66c-0.01,0.39-0.29,0.64-0.75,0.64c-0.64,0.01-1.29,0.01-1.93,0
		c-1.41-0.03-2.53-1.16-2.57-2.57c-0.01-0.23,0-0.46,0-0.69C5.73,26.3,5.55,26.3,5.31,26.3z M8.93,17.97
		c0.75,0.3,1.54,0.67,2.37,0.94c1.54,0.5,2.88,1.28,3.91,2.55c0.11,0.14,0.37,0.23,0.56,0.23c2.34,0.02,4.67,0.02,7.01,0
		c0.37,0,0.65,0.11,0.9,0.38c0.41,0.45,0.84,0.88,1.29,1.35c0.47-0.47,0.9-0.88,1.29-1.31c0.28-0.3,0.59-0.43,1.01-0.43
		c1.8,0.02,3.61,0.01,5.41,0.01c0.63,0,1.33,0.16,1.86-0.07c0.54-0.22,0.93-0.82,1.36-1.28c0.34-0.37,0.74-0.62,1.21-0.8
		c1.22-0.47,2.43-0.97,3.65-1.45c0.13-0.05,0.26-0.11,0.31-0.13c-0.83-0.86-1.65-1.7-2.44-2.56c-0.18-0.19-0.33-0.27-0.58-0.27
		c-2.66,0.01-5.33,0.01-7.99,0.01c-6.03,0-12.05,0-18.08,0c-0.16,0-0.38,0.02-0.48,0.12C10.63,16.14,9.79,17.05,8.93,17.97z
		 M12.52,13.79c8.33,0,16.63,0,24.95,0c-0.5-1.08-0.95-2.14-1.47-3.17c-0.67-1.32-1.78-2.04-3.25-2.05c-5.17-0.02-10.33-0.01-15.5,0
		c-1.3,0-2.37,0.58-3.02,1.67C13.56,11.36,13.09,12.59,12.52,13.79z M13.85,31.5c7.34,0,14.64,0,21.96,0
		c-0.71-0.89-1.58-1.29-2.7-1.29c-5.51,0.02-11.01,0.02-16.52,0C15.48,30.21,14.58,30.59,13.85,31.5z M11.87,32.85
		c-0.19,0-0.34,0-0.49,0c-1.34,0-2.68,0-4.01,0c-0.63,0-1.21-0.15-1.75-0.47c-0.09-0.05-0.18-0.09-0.3-0.15c0,0.66-0.01,1.27,0,1.89
		c0.01,0.44,0.25,0.7,0.69,0.7c1.72,0.01,3.44,0.01,5.16,0c0.44,0,0.69-0.25,0.71-0.68C11.88,33.72,11.87,33.31,11.87,32.85z
		 M38.12,32.85c0,0.47-0.01,0.89,0,1.31c0.02,0.39,0.26,0.65,0.65,0.65c1.75,0.01,3.49,0.01,5.24,0c0.36,0,0.62-0.21,0.64-0.56
		c0.04-0.66,0.01-1.32,0.01-2.07c-0.89,0.69-1.87,0.69-2.86,0.68C40.6,32.83,39.39,32.85,38.12,32.85z M12.9,20.99
		c-0.16-0.07-0.29-0.14-0.43-0.19c-1.27-0.51-2.53-1.01-3.8-1.52c-1.19-0.48-1.32-0.44-2.13,0.57c-0.1,0.13-0.2,0.26-0.29,0.4
		c-0.31,0.47-0.22,0.97,0.28,1.23c0.25,0.13,0.57,0.2,0.86,0.2c1.39,0.02,2.79-0.03,4.18,0.03C12.17,21.73,12.55,21.5,12.9,20.99z
		 M37.12,20.97c-0.02,0.05-0.03,0.1-0.05,0.15c0.3,0.19,0.6,0.54,0.91,0.55c1.58,0.06,3.17,0.03,4.75,0.02
		c0.21,0,0.44-0.05,0.63-0.14c0.55-0.25,0.73-0.82,0.36-1.3c-0.33-0.43-0.72-0.82-1.11-1.19c-0.11-0.1-0.38-0.13-0.53-0.07
		c-1.29,0.49-2.56,1.01-3.84,1.53C37.87,20.67,37.49,20.82,37.12,20.97z M42.7,13.84c-0.65,0-1.28,0-1.93,0c0,0.38,0,0.74,0,1.14
		c0.51-0.1,0.99-0.22,1.48-0.28c0.41-0.05,0.53-0.24,0.46-0.61C42.7,14.01,42.7,13.93,42.7,13.84z M9.24,13.85
		c-0.68,0-1.31,0-1.92,0c0,0.27,0,0.51,0,0.75c0.66,0.13,1.28,0.25,1.92,0.37C9.24,14.57,9.24,14.22,9.24,13.85z"/>
</g>
</svg>
